<?xml version="1.0" encoding="UTF-8"?><svg id="b" xmlns="http://www.w3.org/2000/svg" width="320.159" height="282.439" viewBox="0 0 320.159 282.439"><defs><style>.j{fill:#bdbdbd;}.k{fill:#3d8dcc;}.l{fill:#fff;}.m{fill:#7abee6;}.n{fill:#211715;}.o{fill:#645d5c;}</style></defs><g id="c"><path class="l" d="M52.206,143.034c-18.91-10.919-36.469-21.057-50.206-28.987,18.552-10.714,41.662-24.068,58.554-33.829.121.07.243.14.364.21,67.312,38.869,147.117,84.951,186.216,107.535-.004,24.664-.005,50.422-.005,58.699-15.183,8.775-43.629,25.215-58.452,33.786,0-3.122,0-31.145.01-58.604-19.805-11.436-83.456-48.192-136.481-78.809Z"/><path class="n" d="M196.944,219.271c11.483-6.633,22.965-13.269,34.448-19.903,2.517-1.454,5.035-2.909,7.552-4.362,2.229-1.287.217-4.745-2.019-3.454-11.334,6.545-22.664,13.094-33.996,19.642-2.668,1.541-5.336,3.083-8.004,4.624-2.228,1.287-.216,4.745,2.019,3.454h0Z"/><path class="n" d="M53.215,141.307c-13.483-7.785-26.967-15.571-40.45-23.355-3.252-1.877-6.503-3.755-9.755-5.632v3.454c15.531-8.969,31.06-17.941,46.589-26.914,3.988-2.305,7.977-4.609,11.965-6.914h-2.019c13.485,7.787,26.97,15.574,40.455,23.36,13.653,7.884,27.306,15.768,40.959,23.651,13.086,7.556,26.172,15.113,39.257,22.669,11.603,6.7,23.205,13.4,34.807,20.101,9.389,5.422,18.778,10.845,28.167,16.267.979.565,1.957,1.13,2.936,1.696l-.991-1.727c-.003,16.975-.004,33.95-.005,50.925,0,2.591,0,5.182,0,7.774l.991-1.727c-15.616,9.025-31.232,18.05-46.847,27.076-3.869,2.236-7.737,4.473-11.606,6.709l3.009,1.727c0-13.585.002-27.17.005-40.755.001-5.95.003-11.899.005-17.849,0-.702-.381-1.375-.991-1.727-13.38-7.726-26.76-15.453-40.14-23.179-20.157-11.64-40.314-23.279-60.471-34.919-11.957-6.904-23.913-13.808-35.87-20.712-2.233-1.29-4.25,2.166-2.019,3.454,21.294,12.295,42.587,24.59,63.88,36.886,17.934,10.356,35.869,20.712,53.803,31.068,6.266,3.618,12.532,7.237,18.798,10.855l-.991-1.727c-.006,17.747-.009,35.493-.01,53.24,0,1.788,0,3.576,0,5.364,0,1.521,1.698,2.485,3.009,1.727,17.912-10.356,35.826-20.708,53.739-31.061.937-.541,1.873-1.083,2.81-1.624.981-.567,2.494-1.101,2.823-2.295.196-.711.071-1.612.071-2.347,0-.904,0-1.808,0-2.712,0-4.707,0-9.413,0-14.12,0-6.403,0-12.805.002-19.208,0-3.443,0-6.886.001-10.329,0-1.751,0-3.503,0-5.254,0-1.779.272-3.781-.035-5.527-.225-1.282-1.444-1.744-2.459-2.33-.889-.514-1.779-1.027-2.668-1.541-1.725-.996-3.449-1.992-5.174-2.988-3.883-2.243-7.766-4.485-11.649-6.728-8.889-5.134-17.779-10.267-26.668-15.401-21.107-12.189-42.215-24.378-63.323-36.567-22.504-12.995-45.007-25.989-67.511-38.984-2.695-1.556-5.389-3.112-8.084-4.668-.623-.36-1.396-.36-2.019,0-15.243,8.809-30.487,17.617-45.732,26.423-4.274,2.469-8.547,4.937-12.821,7.405-1.297.749-1.298,2.705,0,3.454,12.586,7.266,25.172,14.533,37.757,21.8,4.149,2.396,8.299,4.792,12.448,7.188,2.233,1.29,4.25-2.166,2.019-3.454Z"/><g id="d"><path class="n" d="M4,173.696c0-13.389,0-26.779.003-40.168,0-6.399.002-12.797.003-19.196,0-2.574-4-2.578-4,0C.002,132.762,0,151.192,0,169.621c0,1.358,0,2.716,0,4.075,0,2.574,4,2.578,4,0h0Z"/></g><path class="k" d="M85.977,105.742c-2.972-1.714-5.944-3.428-8.913-5.144-.666-.385-1.499.096-1.499.865v20.65c7.901,4.563,15.803,9.125,23.69,13.675.172-.299.267-.643.267-1v-20.073c0-.715-.381-1.375-.999-1.733-4.179-2.416-8.363-4.828-12.547-7.241Z"/><path class="n" d="M57.779,134.932c6.265-3.617,12.531-7.235,18.796-10.852,2.229-1.287.217-4.745-2.019-3.454-6.265,3.617-12.531,7.235-18.796,10.852-2.229,1.287-.217,4.745,2.019,3.454h0Z"/><path class="n" d="M77.566,122.114c0-5.049,0-10.099,0-15.148v-3.926c0-.361.051-.76,0-1.118-.075-.523.288-.749-.541.098-.78.797-.444.609.317,1.048.286.165.572.33.858.496.715.413,1.43.826,2.146,1.239,1.574.908,3.148,1.816,4.722,2.724,2.934,1.692,5.868,3.384,8.801,5.077.644.372,1.287.743,1.931,1.115.395.228,1.5.625,1.73,1.006.023.038-.018.298-.005.379.138.883,0,1.903,0,2.795v9.56c0,1.474,0,2.949,0,4.423,0,.805.173,1.833,0,2.622-.179.817-1.984,1.429-2.728,1.859-4.979,2.874-9.958,5.749-14.936,8.623-2.229,1.287-.217,4.745,2.019,3.454,4.785-2.762,9.569-5.525,14.354-8.287,2.233-1.289,5.152-2.367,5.292-5.365.094-2.001,0-4.029,0-6.032v-10.376c0-1.065.015-2.132,0-3.197-.026-1.876-.779-3.196-2.419-4.175-6.31-3.766-12.737-7.347-19.101-11.022-1.322-.764-2.725-1.895-4.341-1.38-1.299.414-2.016,1.571-2.097,2.883-.044.712,0,1.441,0,2.154,0,6.157,0,12.314,0,18.471,0,2.574,4,2.578,4,0h0Z"/><path class="n" d="M99.179,133.434c-7.536-4.347-15.07-8.697-22.604-13.048-2.233-1.29-4.25,2.166-2.019,3.454,7.534,4.351,15.068,8.701,22.604,13.048,2.234,1.289,4.251-2.167,2.019-3.454h0Z"/><path class="k" d="M67.267,185.673v9.931c-5.39,3.109-20.486,11.776-25.474,14.659-1.41.815-3.714.814-5.124,0-5.409-3.124-17.902-10.339-24.991-14.433-1.57-.907-2.528-2.569-2.528-4.382v-11.304l58.117,5.53Z"/><path class="l" d="M39.11,188.53c1.133,1.4,3.392,2.23,5.444,2.556,1.459.232,3.845.18,5.289-.133,6.634-1.439,11.743-3.971,17.423-7.147,0,1.415,0,2.954,0,4.458l.504-.243c3.102-1.423,7.623-3.258,11.011-4.764.75-.333,1.216-1.094,1.18-1.914-.043-.988-.089-1.964-.137-2.924-1.088-6.584-6.379-10.206-12.464-11.493l-28.84-3.614.59,25.22Z"/><path class="l" d="M67.465,215.458c-.068-.045-.135-.091-.201-.139.002-2.302.005-5.159.007-8.073,1.287-.053,2.653-.1,3.837-.159,1.473-.073,3.051-.184,4.208-1.098.35-.276.85-1.52,1.049-2.565.049-.298.097-.595.144-.892,1.316-.388,4.466.039,5.763.35,1.284.308,2.331,1.315,3.032,2.434.328.524.384,1.113.425,1.73.057.865-.103,1.687-.605,2.41-.167.241-.351.471-.542.688-2.1,2.386-5.104,3.744-8.04,4.96-1.652.684-3.354,1.354-5.14,1.423-1.374.053-2.799-.319-3.938-1.069Z"/><path class="l" d="M76.24,203.969c.049-.183.092-.367.125-.545.745-4.523,1.232-8.94,1.608-13.837.125-1.63.17-3.984.284-5.615l.035-.501c-3.322,1.462-7.566,3.192-10.522,4.548l-.503.231c.002,2.755.005,5.099.005,7.38,0,2.961-.003,7.351-.005,11.617,1.287-.053,2.655-.1,3.84-.159,1.473-.073,3.051-.184,4.208-1.098.29-.229.684-1.125.923-2.02Z"/><path class="n" d="M67.361,181.457c-4.444,2.508-8.952,4.919-13.838,6.452-2.255.707-4.515,1.33-6.892,1.319-2.124-.01-4.637-.445-6.106-2.113-1.705-1.935-4.525.903-2.828,2.828,3.805,4.319,10.741,3.589,15.666,2.189,5.671-1.612,10.906-4.337,16.018-7.222,2.242-1.265.228-4.722-2.019-3.454h0Z"/><path class="n" d="M66.829,168.853c4.494.98,9.036,3.408,10.564,8.042.448,1.36.482,2.659.553,4.077.008.161.056.348-.007.5.182-.146.127-.127-.167.057-.197.088-.394.175-.591.261-.625.275-1.251.545-1.879.814-2.85,1.222-5.72,2.4-8.541,3.689-.983.449-1.224,1.871-.718,2.736.59,1.009,1.75,1.168,2.736.718,3.24-1.48,6.543-2.815,9.809-4.236,1.895-.825,3.323-1.921,3.373-4.169.039-1.738-.113-3.567-.622-5.23-1.875-6.124-7.422-9.802-13.447-11.116-2.509-.547-3.581,3.308-1.063,3.857h0Z"/><path class="n" d="M63.935,214.46c1.331,2.539,4.095,3.935,6.891,4.065,3.069.143,6.13-1.362,8.85-2.611,2.58-1.185,5.096-2.727,6.846-5.008,1.975-2.575,1.429-6.151-.873-8.317-2.122-1.997-5.615-2.378-8.42-2.181-1.078.076-2,.865-2,2,0,1.024.917,2.076,2,2,1.825-.128,4.608-.141,5.918,1.339,1.795,2.028-.823,4.041-2.439,5.079-2.271,1.459-4.959,2.669-7.561,3.392-2.117.588-4.635.367-5.759-1.776-1.196-2.281-4.649-.261-3.454,2.019h0Z"/><path class="n" d="M76.257,183.973c-.316,4.808-.55,9.589-1.155,14.377-.147,1.164-.314,2.325-.496,3.485-.093.595-.175,1.192-.342,1.772-.075.26-.172.504-.262.757-.031.088-.3.427-.078.207.281-.279-.299.119-.418.166-.223.088-.473.141-.708.19-.496.102-1.002.125-1.506.153-1.353.074-2.707.116-4.061.17-2.565.103-2.578,4.104,0,4,2.711-.109,6.023.206,8.482-1.138,2.504-1.369,2.675-4.594,3.032-7.113.805-5.666,1.135-11.322,1.51-17.024.169-2.57-3.832-2.56-4,0h0Z"/><path class="n" d="M65.28,195.655c0,7.317-.016,14.635-.016,21.952,0,2.574,4,2.578,4,0,0-7.317.016-14.635.016-21.952,0-2.574-4-2.578-4,0h0Z"/><path class="n" d="M65.267,185.673v9.931l.991-1.727c-7.137,4.117-14.286,8.215-21.427,12.326-1.317.758-2.616,1.61-3.975,2.291-1.899.951-3.451-.116-5.07-1.051-4.136-2.389-8.272-4.777-12.407-7.165-2.398-1.385-4.795-2.769-7.193-4.154-1.919-1.108-4.945-2.089-5.036-4.676-.09-2.567-4.091-2.579-4,0,.112,3.185,1.896,5.172,4.53,6.693,2.153,1.243,4.306,2.487,6.46,3.73,4.632,2.675,9.264,5.35,13.895,8.025,1.781,1.028,3.689,2.49,5.745,2.838,2.575.436,4.552-.474,6.706-1.715,3.778-2.177,7.558-4.35,11.338-6.523,4.152-2.387,8.304-4.772,12.453-7.164.609-.351.991-1.025.991-1.727v-9.931c0-2.574-4-2.578-4,0h0Z"/><path class="l" d="M85.291,143.024c.987-.105,1.948-.367,2.926-.191,1.135.204,2.151.791,2.969,1.604.801.796,1.157,2.202,1.271,3.531.07.818-.089,1.659-.444,2.399-.24.5-.608.986-.999,1.379-1.625,1.633-4.903,4.058-6.688,5.008-.116-.208-.3-.39-.475-.553-2.649-2.468-5.298-4.936-7.948-7.404-.183-.171-.465-.257-.706-.329-.086-.026-.177-.04-.269-.043l.847-1.393,2.077-3.374c.554-.9,1.251-1.895,2.301-2.013,1.199-.134,2.174.942,3.334,1.273.616.176,1.215.169,1.804.106Z"/><path class="n" d="M77.501,148.041c.772-1.254,1.515-2.532,2.324-3.763.169-.257.44-.644.708-.72-.228.064-.141.037-.105.096.033.055.439.202.612.299,1.273.712,2.522,1.198,4.011,1.09,1.12-.081,2.324-.512,3.409-.088,1.005.393,1.551,1.02,1.802,1.955.269.999.351,2.049-.256,2.939-.55.805-1.447,1.463-2.197,2.076-.764.625-1.552,1.211-2.424,1.81-.459.315-.924.622-1.4.909-.199.12-.399.237-.603.347-.071.038-.634.315-.326.176.354-.159-.15.049-.238.078-.165.055-.332.103-.5.144-.283.07-.464.102-.755.112-.584.02-1.053-.057-1.566-.348-2.243-1.271-4.261,2.183-2.019,3.454,2.812,1.594,5.954.821,8.527-.82,1.211-.772,2.364-1.632,3.492-2.519,1.06-.833,2.149-1.695,2.988-2.758,2.211-2.803,1.953-7.591-.877-9.93-1.396-1.154-3.145-1.916-4.987-1.793-.787.052-1.559.248-2.348.271-.777.022-1.16-.258-1.82-.62-1.891-1.037-3.941-1.088-5.55.504-.621.614-1.082,1.388-1.537,2.126l-1.818,2.952c-1.353,2.198,2.105,4.21,3.454,2.019h0Z"/><path class="m" d="M67.263,149.919c.061.104.123.207.185.31.131.216.288.449.533.51.214.054.437-.034.634-.134,1.481-.752,3.537-.953,5.674-1.932.21-.096.661-.194,1.025-.086.24.071.522.158.706.329,2.649,2.468,5.298,4.936,7.948,7.404.314.293.654.648.622,1.076-.023.307-.236.562-.439.794-1.701,1.942-3.464,3.843-5.499,5.433-3.197,2.499-6.822,4.326-10.407,4.143-2.385-.122-5.038-1.129-7.062-2.562.104,1.432.206,2.868.304,4.303.034.53.076,1.09-.168,1.55-.286.53-.858.84-1.429,1.08-4.708,2.08-9.829,1.85-15.639.51-1.27-.28-3.708-1.24-4.835-1.9-4.088-2.37-13.869-7.036-18.144-13.992-1.347-2.193-1.391-8.608-1.159-12.461.39-5.284,1.414-11.899,3.964-16.724,1.55-2.932,4.728-5.289,7.395-6.521,1.193-.664,2.837-.731,4.253-.587,5.308.541,9.708,2.39,14.516,4.702,2.677,1.287,4.132,1.936,6.265,4.004.089.096.178.193.265.291,5.664,6.315,6.804,14.18,10.494,20.461Z"/><path class="n" d="M55.356,130.872c4.8,5.446,6.23,12.638,9.546,18.914.825,1.561,1.833,3.394,3.935,2.872.782-.194,1.547-.623,2.332-.848.869-.249,1.743-.472,2.593-.78.239-.087.981-.529,1.171-.491.014.003.749.793.756.8.843.785,1.686,1.571,2.529,2.356s1.686,1.571,2.529,2.356c.652.607,1.686,1.272,2.076,2.047l-.273-1.009c.243-.365.254-.412.035-.142-.15.171-.301.342-.453.512-.303.34-.609.679-.919,1.013-.516.556-1.043,1.104-1.587,1.633-1.178,1.146-2.429,2.197-3.802,3.101-2.459,1.619-5.366,2.954-8.381,2.476-6.312-1.001-9.504-6.899-12.971-11.586-.641-.867-1.733-1.305-2.736-.718-.855.5-1.364,1.863-.718,2.736,2.568,3.471,4.934,7.533,8.366,10.229,3.407,2.677,7.893,4.035,12.179,3.11,4.532-.978,8.531-4.068,11.694-7.328,1.448-1.493,3.975-3.469,3.12-5.809-.369-1.01-1.321-1.715-2.08-2.422-.963-.897-1.927-1.795-2.89-2.692-1.084-1.01-2.168-2.019-3.251-3.029-1.056-.983-2.084-1.722-3.589-1.59-1.177.103-2.36.78-3.501,1.102-.562.159-1.129.302-1.685.481-.227.073-.453.15-.676.235-.125.047-.999.345-.724.337l1.009.273c.253.31.251.273-.005-.111-.125-.213-.247-.428-.366-.644-.239-.434-.467-.874-.687-1.318-.422-.855-.812-1.726-1.179-2.605-.74-1.773-1.409-3.574-2.144-5.349-1.641-3.966-3.569-7.7-6.426-10.941-1.705-1.935-4.525.903-2.828,2.828h0Z"/><path class="n" d="M7.157,192.74c0,8.289-.008,16.578-.008,24.867,0,2.574,4,2.578,4,0,0-8.289.008-16.578.008-24.867,0-2.574-4-2.578-4,0h0Z"/><path class="n" d="M36.912,210.873v23.909c0,2.574,4,2.578,4,0v-23.909c0-2.574-4-2.578-4,0h0Z"/><path class="n" d="M21.928,153.085c-.264-5.38.099-10.93,1.162-16.207.796-3.953,1.912-8.27,4.934-11.128,1.435-1.357,3.545-3.005,5.558-3.299,2.471-.36,5.283.452,7.628,1.162,2.774.84,5.411,2.028,8.021,3.278,2.231,1.069,4.432,2.124,6.126,3.982,1.738,1.907,4.56-.929,2.828-2.828-1.629-1.787-3.703-3.041-5.857-4.089-2.624-1.276-5.275-2.522-8.02-3.52-2.768-1.007-5.648-1.698-8.584-1.974-2.794-.262-5.163.594-7.486,2.089-2.255,1.452-4.343,3.338-5.703,5.674-1.127,1.936-1.902,4.135-2.509,6.283-1.203,4.257-1.75,8.713-2.005,13.12-.143,2.477-.214,4.977-.092,7.458.126,2.562,4.126,2.577,4,0h0Z"/><path class="n" d="M59.177,165.205c.067.874.131,1.749.193,2.624.044.62.319,1.613.144,2.205-.042.141.021.052-.296.221-.306.162-.661.285-.985.402-.624.226-1.263.414-1.909.568-2.735.649-5.642.55-8.402.112-2.46-.39-4.927-.947-7.144-2.125-2.503-1.33-4.612-3.205-6.486-5.311-1.715-1.927-4.536.91-2.828,2.828,2.199,2.471,4.834,4.78,7.845,6.209,3.112,1.477,6.405,2.191,9.818,2.562,3.394.369,6.936.179,10.169-.987,1.668-.602,3.606-1.375,4.082-3.289.461-1.854-.058-4.143-.201-6.02-.194-2.551-4.196-2.572-4,0h0Z"/><path class="k" d="M9.153,179.238c.005-12.285.013-27.542.013-32.483,0-1.296,1.376-2.112,2.512-1.488,6.112,3.392,18.064,10.32,24.592,14.224,1.552.928,2.512,2.592,2.512,4.4v32.523c-9.202-5.425-20.661-12.068-29.629-17.176Z"/><path class="n" d="M40.781,199.087v-34.412c0-2.372-.615-4.612-2.509-6.189-1.61-1.34-3.64-2.298-5.441-3.357-4.224-2.485-8.462-4.945-12.713-7.382-1.918-1.1-3.839-2.194-5.767-3.277-1.988-1.117-4.306-2.296-6.201-.229-1.149,1.253-.985,2.892-.985,4.457,0,1.41,0,2.82-.001,4.23-.001,3.932-.003,7.863-.005,11.795-.004,8.908-.009,17.817-.009,26.725,0,2.574,4,2.578,4,0,0-14.28.012-28.56.016-42.841,0-.481.023-.967,0-1.448,0-.019.021-.24,0-.274-.193-.308.14.103-.1.072-.731-.093-.017.247.288.418,1.687.941,3.367,1.895,5.045,2.853,4.05,2.312,8.086,4.648,12.111,7.004,1.754,1.027,3.507,2.057,5.255,3.095,1.701,1.01,3.002,1.782,3.018,3.947.024,3.301,0,6.604,0,9.905v24.909c0,2.574,4,2.578,4,0h0Z"/><path class="n" d="M53.164,123.93c4.036-1.292,7.646-3.756,9.554-7.64,1.815-3.695,2.378-8.007,1.9-12.077-.512-4.358-2.179-8.519-5.33-11.647-2.796-2.775-6.474-4.73-10.357-5.421-7.931-1.412-16.675,1.839-21.093,8.752-2.358,3.691-3.17,8.306-2.734,12.624.425,4.206,1.752,8.538,4.829,11.581,5.889,5.824,15.728,6.123,23.231,3.829,2.455-.751,1.408-4.613-1.063-3.857-5.347,1.635-11.918,1.867-16.911-.979-6.02-3.432-7.388-11.931-5.37-18.101,2.082-6.364,8.859-10.222,15.341-10.209,6.616.013,12.878,4.114,14.824,10.559,1.092,3.616,1.086,7.64-.06,11.243-1.216,3.822-4.058,6.281-7.825,7.487-2.442.782-1.398,4.645,1.063,3.857Z"/><path class="o" d="M35.575,90.643c-.533.252-1.033.524-1.503.814-.857.528-1.615,1.113-2.302,1.741-3.583,3.278-5.167,7.833-5.647,10.55-1.16,6.565-.689,10.2-.103,13.7.266,1.592,1.137,3.545,1.958,4.667.926,1.264,2.941,2.651,4.375,3.282,8.727,3.839,15.81,2.256,19.099.607.841-.421,1.806-.74,2.229-1.591-.945-5.155-3.907-14.156,1.117-18.291,2.215-1.822,5.447-2.32,8.102-1.224-.624-4.383-2.808-8.544-6.108-11.502-4.685-4.199-11.059-5.429-17.155-4.105-1.549.336-2.888.796-4.063,1.352Z"/><path class="n" d="M63.207,102.88c-5.637-1.945-11.778,1.488-12.938,7.332-.983,4.954.58,9.901,1.481,14.74l.202-1.541c-.276.445-1.053.652-1.507.867-.474.224-.44.225-.875.383-1.076.392-2.185.688-3.315.878-2.768.465-5.668.262-8.388-.385-2.884-.686-6.523-1.783-8.35-4.321-1.516-2.106-1.828-4.897-2.017-7.417-.411-5.477.28-11.507,3.397-16.158,3.484-5.2,10.138-7.216,16.158-6.282,7.451,1.156,12.788,7.11,13.917,14.443.165,1.068,1.505,1.659,2.46,1.397,1.141-.314,1.562-1.389,1.397-2.46-1.577-10.236-10.467-17.702-20.796-17.569-4.753.061-9.525,1.486-13.19,4.573-3.36,2.83-5.661,7.097-6.553,11.375-.862,4.135-1.13,8.438-.586,12.63.28,2.16.658,4.182,1.617,6.166,1.04,2.152,2.749,3.731,4.786,4.946,4.178,2.492,9.678,3.574,14.506,3.249,1.804-.121,3.623-.413,5.346-.972,1.567-.508,3.539-1.207,4.729-2.374,1.096-1.074,1-2.16.717-3.534-.212-1.033-.446-2.061-.659-3.094-.441-2.142-.819-4.303-.79-6.498.024-1.792.341-3.708,1.585-5.082,1.673-1.848,4.334-2.217,6.605-1.434,2.439.841,3.486-3.021,1.063-3.857h0Z"/><g id="e"><path class="n" d="M174.349,174.026c-9.573,5.527-19.145,11.056-28.718,16.583-1.536.887-3.073,1.774-4.609,2.662h2.019c-6.689-3.863-13.375-7.73-20.062-11.594-1.001-.579-2.002-1.157-3.003-1.736v3.454c9.351-5.406,18.706-10.804,28.06-16.205,1.755-1.013,3.51-2.027,5.265-3.04h-2.019c6.675,3.855,13.349,7.713,20.023,11.57,1.015.587,2.03,1.173,3.045,1.76l-.919-2.259h0c-.181,1.065.282,2.155,1.397,2.461.961.264,2.278-.326,2.46-1.397h0c.15-.884-.099-1.786-.919-2.26-6.657-3.844-13.312-7.692-19.968-11.538-1.034-.597-2.067-1.195-3.101-1.791-.623-.36-1.396-.36-2.019,0-9.477,5.472-18.953,10.945-28.43,16.418-1.632.942-3.263,1.884-4.894,2.827-1.297.75-1.298,2.704,0,3.454,6.664,3.848,13.326,7.701,19.989,11.552,1.026.593,2.051,1.186,3.077,1.778.623.36,1.396.36,2.019,0,9.662-5.579,19.323-11.159,28.985-16.738,1.447-.836,2.894-1.671,4.342-2.507,2.229-1.287.217-4.745-2.019-3.454Z"/></g><path class="l" d="M132.921,163.429c2.763-.851,5.385-2.356,7.182-4.619,2.67-3.363,3.528-8.304,3.26-12.502-.263-4.118-1.6-8.107-4.399-11.201-.404-.446-.831-.87-1.279-1.272-6.597-5.923-16.342-6.233-23.617-1.364-2.09,1.399-3.919,3.205-5.221,5.366-2.453,4.072-2.912,9.13-2.007,13.797.577,2.977,1.729,5.926,3.825,8.118,5.372,5.614,15.213,5.817,22.184,3.701.024-.007.049-.015.073-.022Z"/><path class="k" d="M143.728,230.629v9.931c-5.39,3.109-20.486,11.776-25.474,14.659-1.41.815-3.714.814-5.124,0-5.409-3.124-17.902-10.339-24.991-14.433-1.57-.907-2.528-2.569-2.528-4.382v-11.304l58.117,5.53Z"/><path class="l" d="M160.974,182.139c-1.292-.094-2.041-1.162-3.336-1.184-1.135-.02-2.008.423-2.722,1.306-1.747,2.159-6.131,10.135-3.947,7.26.326-.203.688-.401,1.1-.589.21-.096.661-.194,1.025-.086.24.071.522.158.706.329,2.479,2.309,4.957,4.618,7.436,6.927,2.099-.716,5.022-1.931,6.628-3.232,2.391-1.938-.737-9.169-1.751-9.88-2.344-1.641-3.366-.721-5.137-.85Z"/><path class="l" d="M108.132,209.454c12.941-3.659,35.69,2.425,35.69,2.425,6.085,1.288,11.377,4.909,12.464,11.493.179,3.548-.821,14.992-1.365,19.454-.088.724-.039,1.473-.307,2.159-.275.704-.791,1.305-1.316,1.879-2.775,3.032-6.556,3.222-9.21,3.664l-2.522.024c.003-3.676.008-7.306.014-9.442.932-.576,1.498-1.587,1.498-2.688,0-1.881-.001-4.165-.001-5.588,0,0,0-1.502,0-3.713-5.424,3.006-10.393,5.401-16.773,6.785-1.444.313-3.83.365-5.289.133-2.053-.326-4.311-1.156-5.444-2.556,0,0-6.147-3.531-15.886-9.127l.458-.129s1.607-12.97,7.989-14.775Z"/><path class="n" d="M150.34,185.057c7.323-1.213,14.721-1.845,22.051-2.986,1.068-.166,1.66-1.504,1.397-2.46-.313-1.14-1.389-1.564-2.46-1.397-1.202.187-1.922.267-3.314.439-1.822.225-3.644.444-5.465.672-4.433.555-8.863,1.145-13.271,1.875-1.066.177-1.662,1.497-1.397,2.46.311,1.132,1.391,1.574,2.46,1.397h0Z"/><path class="n" d="M153.128,188.909c.814-1.489,1.671-2.96,2.609-4.374.193-.291.395-.575.596-.861.331-.472-.212.225.074-.09.129-.142.252-.295.404-.415.209-.165.633-.268.973-.175.193.053.358.174.706.36.409.218.834.433,1.277.573.742.234,1.531.26,2.3.183.563-.056,1.13-.157,1.697-.095-.442-.049.406.141.401.139-.177-.072.529.293.437.239.149.088.908.666.184.085.376.302-.1-.209.004-.017.091.168.21.325.305.491.247.432.461.883.659,1.339-.177-.407.148.392.184.49.094.257.182.516.264.777.195.618.33,1.243.466,1.875.082.383.019.083.008-.003.022.172.038.344.05.517.016.246.022.493.011.74-.006.13-.015.259-.03.388.056-.507.034-.179-.002-.093-.051.121-.081.277-.118.404.101-.347-.031-.175-.03-.002.001.415-.03-.235.079-.102.013.015-.38.328-.085.094-.242.191-.51.354-.772.515-.683.421-1.401.785-2.128,1.122-1.224.565-2.681,1.111-4.097,1.531-1.507.447-2.84.545-4.14-.438-.862-.652-2.237-.137-2.736.718-.6,1.025-.147,2.083.718,2.736,3.226,2.439,7.39.964,10.712-.415,1.778-.738,3.726-1.548,5.172-2.862,1.111-1.01,1.494-2.544,1.464-4.001-.031-1.549-.416-3.115-.946-4.564-.421-1.151-.898-2.348-1.608-3.357-1.049-1.491-2.971-2.345-4.773-2.364-.628-.007-1.247.13-1.873.152-.384.013-.466.011-.71-.08.282.105-.352-.186-.321-.17-.257-.137-.509-.282-.774-.405-2.503-1.161-5.033-.239-6.645,1.881-1.305,1.716-2.384,3.627-3.416,5.515-1.235,2.26,2.218,4.281,3.454,2.019h0Z"/><path class="n" d="M83.618,237.696c0,8.289-.008,16.578-.008,24.867,0,2.574,4,2.578,4,0,0-8.289.008-16.578.008-24.867,0-2.574-4-2.578-4,0h0Z"/><path class="n" d="M113.373,255.829v23.909c0,2.574,4,2.578,4,0v-23.909c0-2.574-4-2.578-4,0h0Z"/><path class="l" d="M162.134,246.637c-.572-.472-1.239-.813-2.017-.999-1.509-.362-3.776-.337-5.809-.044-.279.454-.642.87-1.01,1.271-2.901,3.17-6.901,3.234-9.564,3.726-.003,3.208-.006,6.457-.008,9.086,1.251.8,2.804,1.196,4.301,1.139,1.987-.077,3.88-.822,5.717-1.583,3.266-1.353,6.608-2.864,8.944-5.518.212-.241.417-.497.602-.765.558-.805.738-1.679.674-2.641-.045-.686-.218-1.64-.583-2.222-.356-.567-.768-1.055-1.248-1.451Z"/><path class="n" d="M144.62,252.457c4.439-.716,9.224-1.76,11.564-6.118.935-1.741.824-4.163,1.025-6.119.204-1.981.383-3.965.546-5.951.288-3.525.761-7.197.538-10.738-.279-4.436-3.299-8.439-6.923-10.781-3.12-2.016-6.718-2.73-10.272-3.566-2.504-.589-3.572,3.267-1.063,3.857,2.438.573,5.006.995,7.291,2.047,3.315,1.527,5.925,4.136,6.812,7.745.299,1.214.166,2.552.115,3.819-.071,1.757-.186,3.513-.315,5.267-.254,3.469-.553,6.939-.956,10.394-.128,1.097-.092,1.972-.837,2.848-.761.894-1.664,1.601-2.727,2.099-1.824.854-3.897,1.023-5.861,1.34-1.067.172-1.661,1.5-1.397,2.46.312,1.135,1.39,1.57,2.46,1.397h0Z"/><path class="n" d="M143.822,226.413c-4.444,2.508-8.952,4.919-13.838,6.452-2.255.707-4.515,1.33-6.892,1.319-2.124-.01-4.637-.445-6.106-2.113-1.705-1.935-4.525.903-2.828,2.828,3.805,4.319,10.741,3.589,15.666,2.189,5.671-1.612,10.906-4.337,16.018-7.222,2.242-1.265.228-4.722-2.019-3.454h0Z"/><path class="n" d="M139.915,258.403c1.866,3.559,6.053,4.864,9.825,4.22,2.102-.359,4.081-1.254,6.029-2.089,1.742-.747,3.468-1.555,5.047-2.612s3.154-2.349,4.202-3.962c1.108-1.706,1.199-3.928.56-5.829-1.452-4.319-6.162-4.987-10.089-4.676-1.077.085-2,.858-2,2,0,1.016.917,2.086,2,2,2.179-.173,5.873-.465,6.415,2.407.48,2.542-2.453,4.288-4.347,5.373-2.473,1.416-5.32,2.733-8.103,3.377-2.298.532-4.916,0-6.084-2.228-1.196-2.281-4.649-.261-3.454,2.019h0Z"/><path class="j" d="M116.508,161.957c4.548.731,8.495,2.419,12.765,4.472,2.677,1.287,4.132,1.936,6.265,4.004,5.991,6.466,7.047,14.635,10.943,21.061.131.216.288.449.533.51.214.054.437-.034.634-.134,1.481-.752,2.282-1.961,4.419-2.941.21-.096.661-.194,1.025-.086.24.071.522.158.706.329,2.649,2.468,5.298,4.936,7.948,7.404.314.293.654.648.622,1.076-.023.307-.236.562-.439.794-1.701,1.942-3.464,3.843-5.499,5.433-3.197,2.499-5.567,5.335-9.153,5.152-2.745-.14-5.844-1.453-7.939-3.231-.349-.297-.671-.591-.97-.887-.142-.14-.279-.28-.412-.421.001,1.347.001,2.351.001,2.351.143,1.96.286,3.93.42,5.9.034.53.076,1.09-.168,1.55-.286.53-.858.84-1.429,1.08-4.708,2.08-9.829,1.85-15.639.51-1.27-.28-3.708-1.24-4.835-1.9-.361-.209-.716-.425-1.065-.65.002-1.767.002-3.299.002-4.489,0-1.808-.96-3.472-2.512-4.4-3.554-2.125-8.715-5.147-13.664-8.006l-.105-2.088s-.809-16.14,4.147-25.516c1.55-2.932,4.728-5.289,7.395-6.521,1.385-.493,2.837-.731,4.253-.587.595.061,1.178.138,1.751.23Z"/><path class="n" d="M141.741,240.611c0,7.317-.016,14.635-.016,21.952,0,2.574,4,2.578,4,0,0-7.317.016-14.635.016-21.952,0-2.574-4-2.578-4,0h0Z"/><path class="n" d="M100.962,194.352c-.184-3.751.004-7.555.407-11.284.663-6.14,1.891-13.559,7.28-17.364,1.526-1.078,3.13-1.96,5.041-2.011,2.051-.054,4.186.498,6.142,1.065,3.774,1.094,7.46,2.772,10.919,4.629,6.655,3.572,8.787,11.638,11.53,18.113.747,1.765,1.51,3.644,2.617,5.22,1.602,2.283,3.922.931,5.62-.412.431-.34,1.63-1.538,2.172-1.48.129.014.794.784.959.938.482.449.963.897,1.445,1.346.963.897,1.927,1.795,2.89,2.692.772.719,2.148,1.619,2.618,2.551l-.273-1.009c.243-.365.254-.412.035-.142-.15.171-.301.342-.453.512-.303.34-.609.678-.919,1.013-.568.612-1.149,1.212-1.75,1.791-1.175,1.13-2.466,2.113-3.711,3.163-2.002,1.688-4.039,3.669-6.861,3.3-6.403-.838-9.691-6.925-13.164-11.62-.641-.867-1.733-1.305-2.736-.718-.855.5-1.364,1.863-.718,2.736,2.619,3.54,5.026,7.682,8.568,10.386,3.15,2.404,7.936,4.225,11.847,2.753,2.004-.754,3.641-2.107,5.259-3.474,1.746-1.475,3.548-2.864,5.152-4.499,1.403-1.431,4.005-3.458,3.379-5.733-.309-1.126-1.37-1.905-2.181-2.661-.963-.897-1.927-1.795-2.89-2.692-1.084-1.01-2.168-2.019-3.251-3.029-1.06-.987-2.068-1.723-3.589-1.59-1.171.102-2.27.817-3.197,1.498-.429.315-1.822,1.656-2.134,1.665l1.009.273c.145.074.214.416.09.048-.053-.159-.196-.332-.28-.479-.183-.322-.36-.648-.531-.976-.402-.772-.772-1.559-1.124-2.355-.647-1.465-1.215-2.965-1.806-4.454-1.276-3.216-2.61-6.44-4.526-9.337-1.883-2.848-4.184-5.27-7.225-6.873-3.171-1.671-6.501-3.194-9.889-4.367-3.511-1.215-7.579-2.295-11.287-1.517-3.275.688-6.492,3.115-8.569,5.675-3.765,4.64-4.825,11.335-5.474,17.101-.431,3.833-.631,7.748-.442,11.606.126,2.562,4.126,2.577,4,0h0Z"/><path class="n" d="M135.956,206.845c.131,1.802.267,3.604.387,5.408.018.275.192.926.071,1.149.14-.258-.382.127-.474.17-.625.29-1.293.503-1.955.692-2.776.794-5.72.79-8.565.404-2.616-.356-5.263-.935-7.626-2.149-2.558-1.314-4.711-3.24-6.607-5.377-1.712-1.929-4.533.908-2.828,2.828,2.23,2.513,4.916,4.857,7.99,6.279,3.263,1.509,6.738,2.238,10.311,2.556s7.199-.057,10.518-1.441c1.834-.765,3.169-1.893,3.221-4.016.052-2.145-.286-4.362-.441-6.501-.186-2.552-4.188-2.573-4,0h0Z"/><path class="n" d="M141.728,230.629v9.931l.991-1.727c-7.137,4.117-14.286,8.215-21.427,12.326-1.317.758-2.616,1.61-3.975,2.291-1.899.951-3.451-.116-5.07-1.051-4.136-2.389-8.272-4.777-12.407-7.165-2.398-1.385-4.795-2.769-7.193-4.154-1.919-1.108-4.945-2.089-5.036-4.676-.09-2.567-4.091-2.579-4,0,.112,3.185,1.896,5.172,4.53,6.693,2.153,1.243,4.306,2.487,6.46,3.73,4.632,2.675,9.264,5.35,13.895,8.025,1.781,1.028,3.689,2.49,5.745,2.838,2.575.436,4.552-.474,6.706-1.715,3.778-2.177,7.558-4.35,11.338-6.523,4.152-2.387,8.304-4.772,12.453-7.164.609-.351.991-1.025.991-1.727v-9.931c0-2.574-4-2.578-4,0h0Z"/><path class="k" d="M85.611,224.194c.005-12.285.013-27.542.013-32.483,0-1.296,1.376-2.112,2.512-1.488,6.112,3.392,18.064,10.32,24.592,14.224,1.552.928,2.512,2.592,2.512,4.4v32.523c-9.202-5.425-20.661-12.068-29.629-17.176Z"/><path class="n" d="M117.243,245.369v-34.541c0-2.03.047-4.046-1.133-5.817-1.313-1.969-3.525-2.985-5.507-4.155-4.234-2.5-8.486-4.971-12.749-7.422-1.994-1.146-3.991-2.288-5.994-3.419-1.903-1.075-4.048-2.765-6.286-1.557-1.844.995-1.947,2.826-1.948,4.669,0,1.421,0,2.843-.001,4.264-.001,3.878-.003,7.757-.005,11.635-.004,9.126-.009,18.251-.01,27.377,0,2.574,4,2.578,4,0,0-14.454.013-28.907.016-43.361,0-.289.036-1.241-.02-1.26.133.047-.384.333-.34.228-.033.077-.493-.428.086.064.326.277.817.455,1.189.664,1.802,1.011,3.598,2.033,5.392,3.06,4.107,2.35,8.2,4.724,12.281,7.119,1.759,1.032,3.526,2.053,5.268,3.115,1.654,1.008,1.76,2.39,1.76,4.156v35.183c0,2.574,4,2.578,4,0h0Z"/><path class="o" d="M118.865,130.112c-.518.174-1.031.369-1.536.586-1.127.484-2.219,1.075-3.261,1.772-2.09,1.399-3.919,3.205-5.221,5.366-2.453,4.072-2.912,9.13-2.007,13.797.577,2.977,1.729,5.926,3.825,8.118,5.372,5.614,15.213,5.817,22.184,3.701.024-.007.049-.015.073-.022.211-.065.422-.134.631-.207-1.024-5.194-3.465-12.394,1.392-16.391,2.291-1.885,5.672-2.352,8.375-1.105-.348-3.911-1.687-7.671-4.355-10.62-.404-.446-.831-.87-1.279-1.272-5.16-4.633-12.247-5.832-18.571-3.804-.083.027-.166.054-.249.082Z"/><path class="n" d="M133.453,165.358c4.134-1.321,7.823-3.835,9.802-7.796,1.903-3.809,2.479-8.279,1.997-12.485-.516-4.505-2.245-8.804-5.497-12.037-2.856-2.84-6.608-4.835-10.571-5.568-8.158-1.508-17.12,1.811-21.745,8.85-2.448,3.726-3.32,8.412-2.948,12.811.376,4.439,1.759,9.066,4.999,12.276,6.07,6.013,16.226,6.315,23.963,3.949,2.455-.751,1.408-4.613-1.063-3.857-5.582,1.707-12.45,1.935-17.642-1.079-6.26-3.634-7.614-12.634-5.381-19.034,2.251-6.455,9.243-10.329,15.856-10.307,6.932.024,13.433,4.362,15.413,11.123,1.1,3.756,1.065,7.931-.155,11.655-1.28,3.905-4.237,6.41-8.091,7.642-2.443.781-1.399,4.644,1.063,3.857Z"/><path class="n" d="M143.353,143.588c-5.273-1.863-11.231,1.141-12.828,6.487-1.358,4.544.255,9.367,1.131,13.84.208,1.061,1.475,1.668,2.46,1.397,1.108-.304,1.605-1.397,1.397-2.46-.363-1.853-.829-3.685-1.156-5.545-.281-1.601-.507-3.784-.192-5.279.354-1.682,1.014-3.047,2.554-4.021,1.703-1.076,3.692-1.226,5.571-.562,1.018.36,2.189-.408,2.46-1.397.304-1.105-.375-2.099-1.397-2.46h0Z"/><path class="l" d="M259.343,60.902c-1.531-7.106-2.467-14.341-2.794-21.6,3.972,1.52,8.516,1.521,12.507.085-3.939,6.841-7.095,14.066-9.404,21.515"/><path class="l" d="M256.593,129.608c1.62,1.32,2.13,3.86,1.2,5.62-1.48,2.77-4.56,4.4-7.37,6.02-3.82,2.19-12.41,3.48-15.04-1.58-.63-1.22-.62-2.32-.21-3.4.27-.73.72-1.44,1.28-2.18,1.74-2.3,3.8-4.17,6.18-5.55.04-.03.09-.05.13-.07l.39.71c3.06,1.09,7.76,1.39,11.74.97.61-.06,1.17-.28,1.64-.63l.06.09Z"/><path class="l" d="M229.193,124.328c3.39,1.24,7.69,1.29,10.74.15l1.6-.04c.03.84.06,1.69.08,2.57l1.02,1.53c-2.38,1.38-4.44,3.25-6.18,5.55-.56.74-1.01,1.45-1.28,2.18-1.26.73-3.62,1.45-5.69,1.45-1.48.01-2.99-.01-4.42-.44s-2.77-1.31-3.48-2.62c-.76-1.37-.61-2.63-.02-4.1.58-1.45,1.62-2.61,2.83-3.63,1.3-1.07,2.45-2.11,4.15-2.81l.06-.08c.18.12.38.21.59.29Z"/><path class="n" d="M227.537,122.391c-1.944.829-3.704,2.272-5.226,3.722-1.712,1.631-2.946,3.733-3.208,6.107-.269,2.445,1.213,4.686,3.195,5.977,2.009,1.309,4.482,1.525,6.817,1.522,2.424-.002,4.941-.529,7.07-1.725.941-.529,1.256-1.816.718-2.736-.554-.948-1.791-1.248-2.736-.718-.198.111-.399.211-.603.31-.209.094-.225.101-.048.023-.126.05-.253.097-.38.143-.481.172-.972.315-1.468.432-1.094.258-1.932.287-3.17.267-1.22-.019-2.135-.104-3.286-.495-.389-.132.057.064-.274-.122-.238-.134-.473-.265-.705-.412-.195-.138-.222-.156-.081-.053-.103-.087-.203-.177-.299-.271-.096-.094-.188-.192-.276-.293.081.118.082.12.004.008-.59-.826-.594-1.352-.395-2.085.254-.932.739-1.758,1.333-2.416.738-.818,1.607-1.5,2.458-2.195.302-.247-.023.003.269-.208.233-.168.466-.334.707-.488.511-.327,1.046-.603,1.604-.841.994-.424,1.214-1.888.718-2.736-.601-1.028-1.739-1.143-2.736-.718h0Z"/><path class="n" d="M242.663,126.245c-1.927.996-3.711,2.274-5.277,3.777-1.595,1.531-3.216,3.374-4.042,5.448-1.487,3.735,1.041,7.418,4.471,8.836,6.346,2.623,13.792-.62,18.754-4.64,1.634-1.324,3.222-3.131,3.576-5.27.375-2.268-.398-4.67-2.134-6.206-1.922-1.7-4.762,1.119-2.828,2.828,2.278,2.014.361,4.437-1.513,5.872-1.966,1.505-4.37,2.927-6.582,3.598-2.081.631-4.462.954-6.545.495-1.647-.362-4.181-1.638-3.573-3.814.446-1.595,1.962-3.068,3.113-4.192,1.366-1.334,2.905-2.402,4.6-3.278,2.288-1.182.267-4.635-2.019-3.454h0Z"/><path class="j" d="M283.476,77.007c1.41,4.97,1.931,10.457-.769,15.157-2.29,4.01-6.793,6.13-10.583,8.5-4.706,2.954-9.793,5.849-14.791,8.287.234,7.176.264,10.657.622,17.596.094,1.821-1.244,3.411-3.058,3.601-4.715.494-10.447-.011-13.242-1.653-.04-1.624-.09-3.178-.144-4.681l-1.574.664c-3.05,1.139-7.349,1.093-10.742-.151-1.296-.475-2.143-1.734-2.193-3.114-.302-8.275-.581-14.419-.702-23.684-.045-3.449.859-6.863,2.7-9.781,1.851-2.934,4.442-5.204,7.154-7.641l47.325-3.102Z"/><path class="k" d="M287.848,51.726c.1.431.181.848.24,1.242.928,6.157-.07,13.195-2.826,19.002-.128.271-.265.54-.409.807.059,1.786.102,3.029.102,3.029.079,2.298,1.07,6.16,2.103,8.98.674,1.838-.11,3.887-1.815,4.849-.582.328-1.173.645-1.77.948-.212.538-.469,1.064-.766,1.581-2.29,4.01-6.793,6.13-10.583,8.5-3.873,2.431-8.003,4.822-12.13,6.951,2.009,1.176,4.028,2.319,6.027,3.481,1.13.65,2.53.65,3.66,0,10.571-6.12,21.161-12.211,31.742-18.331,0-17.926,0-37.286,0-37.286,0-2.191-1.169-4.215-3.066-5.31,0,0-11.574-6.682-22.306-12.878,2.947,1.701,6.264,4.61,8.482,7.235,1.534,1.816,2.744,4.74,3.316,7.2Z"/><path class="n" d="M300.411,91.039c-6.432,3.72-12.87,7.431-19.306,11.145-3.145,1.815-6.29,3.631-9.434,5.449-.857.496-1.709,1.003-2.572,1.488-.471.265-.908.529-1.472.456-.797-.104-1.612-.796-2.294-1.188-.851-.49-1.703-.979-2.554-1.47-2.234-1.289-4.25,2.167-2.019,3.454,1.682.97,3.416,2.254,5.254,2.895,1.671.583,3.374.27,4.889-.569,3.535-1.959,7.004-4.05,10.504-6.071,7.007-4.045,14.018-8.084,21.021-12.135,2.228-1.288.216-4.746-2.019-3.454h0Z"/><path class="n" d="M265.756,111.94v30.666c0,2.574,4,2.578,4,0v-30.666c0-2.574-4-2.578-4,0h0Z"/><path class="n" d="M281.548,77.539c.947,3.406,1.55,7.056.663,10.543-.857,3.371-3.029,5.747-5.86,7.644-2.923,1.958-6.009,3.735-9.033,5.53-3.587,2.13-7.249,4.132-10.995,5.968-.604.296-1.012,1.069-.991,1.727.175,5.408.291,10.818.553,16.222.042.872.335,2.064-.467,2.695-.826.65-2.512.44-3.497.456-2.777.044-5.592-.17-8.234-1.072-2.442-.833-3.49,3.03-1.063,3.857,3.082,1.051,6.494,1.297,9.731,1.205,1.6-.046,3.369-.034,4.808-.826,1.295-.713,2.259-1.991,2.629-3.417.411-1.581.067-3.399-.003-5.009-.065-1.502-.121-3.003-.169-4.506-.103-3.202-.184-6.404-.287-9.605l-.991,1.727c4.099-2.009,8.097-4.217,12.006-6.573,3.195-1.926,6.57-3.747,9.54-6.012,3.121-2.38,5.404-5.474,6.277-9.354.917-4.075.345-8.287-.76-12.263-.688-2.477-4.549-1.425-3.857,1.063h0Z"/><path class="n" d="M239.404,122.55c-1.596.565-3.229.784-4.92.743-1.439-.035-3.687-.118-4.89-.992-1.056-.767-.664-2.989-.706-4.1-.066-1.759-.133-3.518-.197-5.276-.126-3.492-.236-6.984-.31-10.478-.081-3.819-.381-7.633,1.077-11.257,1.608-3.997,4.983-6.862,8.106-9.667,1.919-1.724-.917-4.545-2.828-2.828-3.239,2.91-6.618,5.911-8.495,9.93-1.953,4.182-1.968,8.408-1.879,12.927.081,4.124.212,8.247.364,12.369.073,1.994.15,3.988.224,5.981.075,2.031.294,3.944,1.945,5.347,1.761,1.496,4.526,1.844,6.749,2.003,2.281.163,4.661-.081,6.821-.845,2.41-.853,1.372-4.719-1.063-3.857h0Z"/><path class="n" d="M245.473,90.397c-2.121,2.05-3.844,4.459-5.168,7.095-1.487,2.961-1.386,6.266-1.354,9.495.065,6.678.466,13.348.664,20.023.076,2.568,4.076,2.579,4,0-.184-6.233-.546-12.461-.646-18.696-.044-2.72-.434-5.911.643-8.485,1.037-2.479,2.773-4.75,4.691-6.603,1.854-1.792-.976-4.619-2.828-2.828h0Z"/><path class="j" d="M259.651,60.902c2.294-7.401,5.423-14.58,9.322-21.383l7.077-2.229c2.947,1.701,6.264,4.61,8.482,7.235,1.803,2.134,3.158,5.8,3.556,8.443.928,6.157-.07,13.195-2.826,19.002-.129.271-.265.541-.41.809.061,1.823.103,3.027.103,3.027.079,2.298,1.07,6.16,2.103,8.98.674,1.838-.11,3.887-1.815,4.849-4.449,2.509-9.408,4.332-14.096,4.913-1.149.142-2.325.278-3.425-.045-1.839-.54-3.543-4.804-4.168-8.057,0,0-22.326-9.368-25.08-10.518-4.531-9.957-2.784-24.658,3.51-33.654,2.011-2.874,5.772-6.666,9.406-6.387l5.244,5.073c.387,6.704,1.293,13.378,2.708,19.943"/><path class="n" d="M257.112,28.666c6.454,3.726,12.907,7.452,19.361,11.178,6.93,4.001,13.937,7.893,20.8,12.009,2.395,1.436,2.15,3.792,2.15,6.152v43.038c0,7.064-.169,14.151,0,21.214.003.116,0,.232,0,.348,0,2.574,4,2.578,4,0v-63.169c0-2.46.267-5.11-.777-7.403-1.381-3.032-4.758-4.446-7.491-6.024l-12.673-7.317c-7.638-4.41-15.228-8.918-22.92-13.233-.144-.081-.287-.166-.43-.248-2.233-1.289-4.25,2.166-2.019,3.454h0Z"/><path class="n" d="M254.635,40.959c.408,6.883,1.337,13.733,2.779,20.475.538,2.516,4.395,1.451,3.857-1.063-1.369-6.4-2.249-12.878-2.637-19.411-.152-2.558-4.153-2.576-4,0h0Z"/><path class="n" d="M267.246,38.51c-3.947,6.919-7.15,14.256-9.523,21.861-.769,2.463,3.092,3.517,3.857,1.063,2.274-7.288,5.337-14.275,9.12-20.905,1.278-2.239-2.177-4.257-3.454-2.019h0Z"/><path class="n" d="M251.391,33.886c-3.28-.142-6.211,1.88-8.429,4.112-2.202,2.215-3.934,4.891-5.247,7.715-2.735,5.881-4.022,12.487-3.747,18.967.153,3.617.783,7.24,2.088,10.624.388,1.007,1.345,1.703,2.46,1.397.963-.265,1.788-1.447,1.397-2.46-2.597-6.732-2.513-14.341-.629-21.245.913-3.344,2.275-6.557,4.231-9.429,1.693-2.486,4.573-5.823,7.875-5.68,2.574.112,2.568-3.889,0-4h0Z"/><path class="n" d="M244.692,54.202c-.103,2.573-.089,5.147.073,7.717.066,1.042.873,2.05,2,2,1.027-.046,2.071-.882,2-2-.162-2.57-.176-5.144-.073-7.717.042-1.047-.95-2.047-2-2-1.119.05-1.955.879-2,2h0Z"/><path class="n" d="M272.945,59.713c-.133.887-.32,1.765-.575,2.625-.138.465-.3.921-.474,1.374-.132.345.127-.278.024-.049-.045.101-.089.202-.135.302-.102.22-.209.437-.323.651-.215.405-.452.799-.714,1.176-.062.089-.128.175-.19.264-.142.202.268-.324.034-.047-.153.181-.306.36-.471.531-.163.17-.333.334-.51.49-.064.057-.131.111-.196.167-.34.291.369-.249-.003.001-.4.268-.8.514-1.238.717-.952.441-1.265,1.888-.718,2.736.632.981,1.718,1.19,2.736.718,4.003-1.856,5.99-6.462,6.61-10.592.083-.552.092-1.039-.202-1.541-.243-.415-.718-.811-1.195-.919-.951-.217-2.294.29-2.46,1.397h0Z"/><path class="l" d="M253.695,4.751c6.405-3.976,14.909-3.643,21.271.877,6.212,4.414,8.433,12.638,5.772,19.473,1.369.614,2.461,1.895,2.704,3.418.332,2.078-.75,4.357-2.433,5.707-1.834,1.471-4.456,2.262-6.707,2.097-5.299,4.641-13.596,5.442-19.786,2.038-1.784-.981-3.381-2.287-4.727-3.812-6.367-7.205-6.479-19.146-.099-26.405,1.192-1.356,2.544-2.487,4.005-3.394Z"/><path class="o" d="M247.574,11.117c.601-1.053,1.307-2.05,2.117-2.972,6.42-7.304,17.463-8.067,25.276-2.517,6.212,4.413,8.433,12.637,5.772,19.472-.502-.225-1.042-.362-1.592-.39l-.888-1.064c-.678.092-1.34.292-1.957.586-1.117.533-2.437.026-2.958-1.096-1.139-2.457-2.78-4.681-4.793-6.486-.665-.596-1.623-.735-2.431-.353-2.42,1.145-5.246,2.11-7.722,2.573-4.57.856-11.807,1.141-12.79.758,0,0-.209-.081-.572-.221.249-2.91,1.092-5.763,2.536-8.292Z"/><path class="n" d="M282.937,24.887c2.381-7.416-.157-15.806-6.365-20.541-5.871-4.478-14.075-5.639-20.917-2.813-7.216,2.981-11.74,9.722-12.57,17.385s2.381,15.558,8.703,20.086c7.298,5.228,17.92,4.361,24.431-1.721,1.885-1.761-.948-4.585-2.828-2.828-4.543,4.244-11.829,5.247-17.381,2.435-5.788-2.931-9.019-9.158-9.05-15.522-.03-6.111,2.852-12.074,8.234-15.182,5.118-2.956,11.64-2.874,16.799-.058,6.347,3.465,9.301,10.799,7.087,17.695-.789,2.457,3.072,3.509,3.857,1.063h0Z"/><path class="n" d="M279.148,26.711c.465.033-.303-.101.11.011.156.043.315.074.469.124.179.058.419.2.123.04.143.078.288.149.427.234.14.086.388.284.125.065.125.104.247.212.362.328s.224.236.327.363c-.283-.348.008.038.061.127.084.14.159.284.229.431-.196-.412-.004.029.026.135.045.159.08.32.107.483-.077-.463-.014.038-.012.148.003.172-.01.342-.017.514-.018.458.087-.256-.028.152-.047.168-.079.34-.129.507-.019.063-.227.621-.141.422.091-.211-.137.267-.166.321-.084.157-.174.31-.27.46-.033.052-.335.475-.204.306s-.202.228-.244.273c-.12.13-.245.254-.375.374-.046.043-.426.355-.278.244.145-.11-.276.187-.333.224-.159.104-.321.202-.486.296-1.171.665-2.562,1.025-3.808,1.055-1.045.026-2.049.902-2,2,.048,1.062.88,2.027,2,2,4.305-.106,8.621-2.446,10.081-6.659.663-1.914.523-4.205-.63-5.908-1.235-1.824-3.134-2.912-5.327-3.067-1.046-.074-2.046.973-2,2,.051,1.147.88,1.921,2,2h0Z"/><path class="n" d="M256.052,26.853c-.007.128-.087,1.405-1.133,2.092-.686.45-1.374.339-1.591.301-.167-.03-1.251-.242-1.749-1.318-.472-1.019-.258-2.467.701-3.262.995-.824,2.308-.595,3.05.168.668.687.745,1.369.722,2.019Z"/><path class="n" d="M266.728,29.034c-.007.128-.087,1.405-1.133,2.092-.686.45-1.374.339-1.591.301-.167-.03-1.251-.242-1.749-1.318-.472-1.019-.258-2.467.701-3.262.995-.824,2.308-.595,3.05.168.668.687.745,1.369.722,2.019Z"/><path class="n" d="M245.078,21.559c.864.282,1.912.238,2.811.238,1.392,0,2.785-.07,4.174-.168,3.41-.241,6.853-.629,10.125-1.657.978-.307,1.941-.661,2.889-1.049.492-.201,1.459-.892,1.961-.853.552.042,1.453,1.321,1.807,1.728.601.69,1.133,1.428,1.615,2.205.889,1.432,1.387,3.148,2.986,3.97,1.932.993,3.439-.077,5.344-.397,1.066-.179,1.662-1.495,1.397-2.46-.31-1.13-1.391-1.577-2.46-1.397-.477.08-.933.186-1.389.35-.25.09-.71.44-.975.377-.295-.07-.449-.658-.649-1.048-.818-1.596-1.865-3.077-3.041-4.428-1.193-1.371-2.539-2.786-4.466-2.88-1.769-.087-3.608,1.192-5.25,1.752-3.099,1.058-6.282,1.515-9.535,1.761-1.418.107-2.84.182-4.263.193-.482.004-.966.003-1.448-.022-.179-.009-.36-.016-.538-.038.547.068.097.009-.033-.033-2.453-.802-3.503,3.06-1.063,3.857h0Z"/><path class="n" d="M282.955,75.806c.158,3.287,1.185,6.405,2.175,9.511.346,1.086.044,1.951-.896,2.59-1.518,1.033-3.393,1.788-5.095,2.459-1.746.688-3.538,1.263-5.366,1.687-1.631.378-3.421.775-5.103.62-.436-.04-.447-.083-.814-.545-.389-.49-.677-1.085-.946-1.647-.687-1.436-1.114-3.013-1.427-4.568-.507-2.522-4.363-1.454-3.857,1.063.559,2.783,1.534,5.836,3.429,8.014,2.212,2.542,6.088,1.691,8.987,1.094,3.521-.724,6.927-2.022,10.139-3.623,1.486-.741,2.988-1.466,3.986-2.842.87-1.2,1.251-2.7,1.074-4.168-.202-1.678-.994-3.315-1.427-4.951-.406-1.535-.782-3.103-.858-4.694-.123-2.563-4.124-2.577-4,0h0Z"/><path class="l" d="M250.914,77.585c-1.219-5.531-7.825-4.113-11.129-2.324-1.884,1.02-3.535,2.755-3.925,5.037-.603,3.534,2.604,6.283,5.779,6.383,3.373.106,6.103-2.302,8.015-4.875.743-1,1.295-2.109,1.354-3.184.018-.335-.016-.685-.093-1.036Z"/><path class="n" d="M275.041,39.017c1.772,1.045,3.397,2.29,4.918,3.674,1.408,1.28,2.876,2.651,3.87,4.288,2.049,3.371,2.655,7.274,2.591,11.162-.131,7.983-2.989,15.789-9.535,20.65-3.62,2.688-7.807,4.464-12.266,5.14-1.069.162-1.659,1.507-1.397,2.46.314,1.143,1.388,1.559,2.46,1.397,8.423-1.276,17.131-6.624,21.08-14.35,4.112-8.045,5.275-18.856,1.246-27.14-2.188-4.498-6.712-8.235-10.949-10.734-2.222-1.31-4.237,2.146-2.019,3.454h0Z"/><path class="n" d="M252.843,77.053c-.785-3.34-3.516-5.273-6.866-5.382-2.691-.087-5.705.812-7.94,2.308-3.456,2.315-5.565,6.818-3.282,10.704,1.999,3.403,6.422,4.836,10.085,3.478,2.112-.783,3.917-2.183,5.38-3.881,1.798-2.087,3.161-4.386,2.623-7.227-.201-1.062-1.48-1.666-2.46-1.397-1.113.306-1.599,1.395-1.397,2.46.211,1.114-.857,2.481-1.594,3.336-.95,1.102-1.871,1.952-3.074,2.594-.469.25-1.127.503-1.836.61.097-.015.28-.011-.146.011-.193.01-.386.018-.579.015-.172-.003-.343-.01-.514-.028.348.037-.186-.044-.256-.06-.13-.031-.26-.065-.388-.104-.004-.001-.623-.22-.277-.079-.248-.101-.487-.234-.716-.371-.464-.278-.904-.646-1.219-1.082-.577-.798-.758-1.707-.444-2.796.296-1.024,1.16-2.072,2.024-2.666.455-.313.938-.579,1.436-.814.086-.041.174-.077.26-.119.447-.217-.409.149.066-.027.24-.088.477-.182.719-.263.477-.16.961-.296,1.453-.404.236-.052.473-.092.711-.136.514-.095-.3.027.025-.004.185-.017.37-.036.556-.047.261-.014.523-.019.785-.01.129.004.257.017.386.022.526.022-.237-.087.147.016.239.064.483.111.722.177.025.007.478.173.173.051-.283-.114.165.086.221.116.105.058.205.132.311.186.367.187-.228-.26.06.04.083.087.178.176.268.257.053.054.103.11.152.167-.136-.186-.161-.22-.076-.101.17.247.32.503.447.775-.159-.341-.028-.068-.006.011.069.243.146.481.204.727.247,1.052,1.447,1.675,2.46,1.397,1.076-.296,1.645-1.405,1.397-2.46Z"/><path class="l" d="M252.843,79.137c2.56-1.784,5.883-2.171,8.37-.025,1.383,1.194,2.238,2.929,2.553,4.729.32,1.833.041,3.89-1.248,5.233-1.162,1.211-2.903,1.628-4.545,1.975-2.529.533-5.431.946-7.716-.58-4.125-2.754-1.686-7.537,1.136-10.154.455-.422.939-.821,1.45-1.178Z"/><path class="n" d="M253.853,80.864c.292-.198.589-.386.9-.553.183-.098.371-.195.562-.275-.256.107.064-.018.098-.029.325-.102.646-.208.98-.279.026-.006.668-.088.263-.051.199-.018.398-.029.598-.03.166,0,.331.008.497.018.36.022-.441-.115.158.019.328.073.652.149.965.273-.288-.114.111.06.177.095.156.082.302.177.454.265.18.104.468.349.751.645.839.876,1.304,1.925,1.561,3.309.015.078.063.516.032.19.016.174.028.348.033.522s.006.349,0,.524c.002-.054-.051.623-.018.358-.07.566-.257,1.061-.565,1.56-.262.425.178-.105-.195.236-.103.094-.196.195-.302.287.253-.218-.264.172-.263.171-.117.072-.238.139-.36.202.007-.004-.606.261-.285.137-.131.051-.264.097-.397.141-.403.134-.815.242-1.229.34-.689.163-1.384.307-2.082.425-.563.095-1.239.175-2.054.17-.143,0-.287-.005-.43-.011.008,0-.689-.057-.318-.011-.349-.043-.699-.129-1.035-.233-.135-.042-.272-.086-.403-.139.257.106-.152-.084-.207-.113-.162-.087-.314-.188-.472-.282-.368-.219.043.083-.231-.171-.135-.125-.262-.263-.399-.386-.256-.231-.089-.085-.022.002-.168-.22-.297-.461-.424-.705.218.42.005-.011-.024-.111-.03-.099-.047-.203-.078-.301-.145-.468-.008.409-.017-.081-.003-.157-.015-.31-.011-.467.003-.129.029-.264.025-.392.016-.151.01-.105-.018.138.018-.106.039-.211.063-.316.073-.322.18-.631.286-.944.027-.08.154-.344-.009.011.083-.181.169-.36.262-.536.147-.28.308-.553.48-.819.094-.146.192-.289.293-.431.027-.037.378-.482.105-.148.216-.265.438-.524.673-.773.527-.558,1.097-1.067,1.634-1.449.879-.626,1.298-1.745.718-2.736-.508-.868-1.852-1.347-2.736-.718-2.822,2.01-5.288,4.938-5.72,8.483-.476,3.9,2.735,6.975,6.417,7.502,2.01.288,4.001-.003,5.974-.418,1.929-.406,3.917-.987,5.354-2.415,2.938-2.92,2.449-8.154.146-11.302-1.459-1.995-3.481-3.292-5.956-3.567-2.175-.242-4.427.501-6.215,1.717-.892.607-1.289,1.759-.718,2.736.517.885,1.839,1.328,2.736.718Z"/><g id="f"><path class="o" d="M304.481,112.333c-5.012,2.896-13.333,7.705-17.457,10.089-1.524.881-2.54,2.427-2.748,4.174l-1.877,15.785c-.264,2.217.813,4.376,2.746,5.493,1.291.746,2.692,1.556,4.155,2.402,1.73,1,3.86,1.005,5.59.005,4.705-2.719,14.307-8.269,20.492-11.843,1.947-1.125,3.026-3.306,2.743-5.537l-1.827-14.419c-.22-1.732-1.234-3.262-2.746-4.135-1.152-.666-2.402-1.388-3.481-2.012-1.73-1-3.858-1.001-5.589-.001Z"/></g><g id="g"><path class="n" d="M303.472,110.606c-4.614,2.666-9.229,5.333-13.843,8-2.099,1.213-4.531,2.258-5.988,4.269-.945,1.305-1.254,2.79-1.44,4.348l-1.068,8.98c-.278,2.341-.908,4.907-.757,7.277.19,2.989,1.978,5.091,4.474,6.534,2.772,1.603,5.369,3.489,8.738,2.861,2.274-.424,4.431-2.092,6.407-3.234,2.373-1.372,4.746-2.743,7.119-4.114,2.361-1.365,4.722-2.729,7.083-4.093,2.407-1.391,4.666-2.672,5.598-5.479.851-2.563-.008-5.722-.337-8.318-.385-3.035-.759-6.072-1.154-9.105-.415-3.19-2.232-5.038-4.917-6.59-1.464-.846-2.93-1.875-4.618-2.202-1.849-.359-3.645-.01-5.296.867-2.274,1.209-.255,4.663,2.019,3.454,2.466-1.311,5.005.713,7.051,2.013,1.204.765,1.676,1.856,1.809,2.83.353,2.586.656,5.179.984,7.769.263,2.072.583,4.145.789,6.224.239,2.411-1.137,3.461-3.042,4.561-2.096,1.211-4.193,2.423-6.289,3.634-4.006,2.315-8.013,4.631-12.019,6.946-.8.463-1.538.929-2.486.988-1.348.084-2.436-.741-3.548-1.383-2.031-1.174-4.507-2.139-4.373-4.892.093-1.904.442-3.822.667-5.713l1.041-8.75c.052-.433.101-.867.155-1.3.014-.114.022-.231.041-.345-.05.296.103-.407.176-.605.742-2.017,3.467-2.975,5.201-3.977,4.614-2.667,9.228-5.334,13.843-8,2.228-1.288.216-4.745-2.019-3.454Z"/></g><g id="h"><path class="n" d="M284.844,125.904c1.58.914,3.161,1.827,4.742,2.741,1.776,1.027,3.442,2.046,5.575,1.492,1.128-.293,2.175-1.058,3.175-1.636,1.1-.636,2.2-1.272,3.301-1.908,4.691-2.712,9.383-5.423,14.075-8.134,2.228-1.287.216-4.745-2.019-3.454-4.314,2.492-8.627,4.985-12.94,7.478-1.954,1.129-3.908,2.259-5.863,3.388-.429.248-.8.511-1.322.405-.71-.144-1.553-.849-2.168-1.204-1.512-.874-3.025-1.748-4.537-2.623-2.233-1.291-4.249,2.164-2.019,3.454h0Z"/></g><g id="i"><path class="n" d="M291.225,128.833c-.312,6.102-.624,12.204-.937,18.306l-.135,2.635c-.132,2.573,3.869,2.566,4,0,.312-6.102.624-12.204.937-18.306l.135-2.635c.132-2.573-3.869-2.566-4,0h0Z"/></g><path class="n" d="M307.298,121.716v1.521c0,.247.001.494,0,.741,0,.073,0,.146-.003.219l-.007.136c-.022.222-.015.183.02-.118.038.051-.079.369-.092.42-.031.118-.067.235-.106.351-.038.113-.125.452.012.009-.071.228-.225.468-.346.672-.064.109-.132.215-.203.319-.074.11-.199.402,0,.018-.124.238-.417.45-.604.634-.278.274.07-.034.077-.048-.041.081-.265.177-.341.223-.016.01-.033.019-.049.028-.134.08-.27.156-.405.234l-3.217,1.857c-.399.231-.798.463-1.198.692-.097.056-.293.212-.378.204.268.028.3-.137.047-.046-.158.057-.439.024.129-.009-.388.023.41.103.164.041-.433-.11.36.229.065.036.406.265.287.234.174.125-.134-.152-.093-.099.122.159-.098-.181-.079-.123.055.175.006-.025-.07-.228-.071-.232-.122-.339.011.443-.004-.075-.006-.208-.002-.416-.002-.623v-1.797c0-1.046-.92-2.048-2-2s-2,.879-2,2c0,1.495-.22,3.23.567,4.571.795,1.354,2.443,1.894,3.922,1.471.582-.167,1.095-.47,1.613-.769l3.603-2.08c1.544-.891,2.888-1.955,3.671-3.625.525-1.119.785-2.24.785-3.473v-1.961c0-1.046-.92-2.048-2-2s-2,.879-2,2h0Z"/></g></svg>