<?xml version="1.0" encoding="UTF-8"?><svg id="b" xmlns="http://www.w3.org/2000/svg" width="265.148" height="362.149" viewBox="0 0 265.148 362.149"><defs><style>.d{fill:#6dbf6b;}.e{fill:#fff;}.f{fill:#211715;}.g{fill:#c6c6c6;}.h{fill:#645d5c;}</style></defs><g id="c"><path class="e" d="M197.03,88.509c1.689-1.623,3.964-2.233,5.911-2.164,4.237.149,6.04,2.441,6.816,3.787,2.316,4.017,2.218,11.418.664,15.998-1.101,3.243-2.905,8.204-7.253,11.762-1.792,1.466-4.428,2.432-6.95,2.006l-.667-.113c-.8,2.643-1.787,5.233-2.391,6.49-1.77,4.805-11.57,21.682-23.96,28.213.025,3.48.247,7.07,1.405,9.937,2.58,6.39,16.52,14.43,17.48,14.85,0,0-.153,21.895-39.986,21.895s-47.494-21.895-47.494-21.895c0,0-.17-.486-.34-.971l.34-.149c.96-.42,12.71-7.34,15.3-13.73,1.22-3.01,1.4-6.8,1.41-10.42,0,0,.001-.464.002-1.305-4.15-2.644-8.007-6.219-11.721-10.664-6.263-7.496-9.83-15.571-11.799-22.26-2.687.69-5.593-.308-7.52-1.885-4.348-3.558-6.152-8.519-7.253-11.762-1.555-4.58-1.653-11.981.664-15.998.776-1.346,2.579-3.638,6.816-3.787,1.947-.069,4.222.541,5.911,2.164,0,0-10.125-45.283,52.307-45.283s52.307,45.283,52.307,45.283Z"/><path class="f" d="M166.806,155.095c.074,4.05.302,8.588,2.553,12.102,1.593,2.487,3.808,4.557,6.077,6.416,2.332,1.91,4.791,3.667,7.327,5.294,1.323.849,2.676,1.787,4.111,2.44,1.179.537,2.583.337,3.284-.861.603-1.031.324-2.744-.861-3.284-1.294-.589-2.515-1.427-3.711-2.185-2.162-1.371-4.339-2.858-6.292-4.423-1.146-.918-2.26-1.879-3.306-2.91-.829-.817-1.734-1.815-2.219-2.514-.347-.5-.66-1.022-.922-1.572.262.549-.189-.52-.203-.564-.176-.52-.319-1.051-.442-1.586-.477-2.082-.556-4.226-.595-6.354-.056-3.085-4.856-3.095-4.8,0h0Z"/><path class="f" d="M101.817,180.228c1.391-.635,2.696-1.571,3.958-2.421,2.364-1.591,4.662-3.319,6.77-5.239,2.025-1.844,4.051-3.98,5.235-6.48,1.767-3.729,1.916-8.028,1.935-12.083.015-3.089-4.785-3.093-4.8,0-.009,1.915-.031,3.853-.29,5.754-.205,1.508-.689,3.362-1.217,4.36-1.125,2.126-2.869,3.835-4.721,5.471-1.81,1.598-3.731,3.013-5.752,4.35-1.134.75-2.3,1.575-3.542,2.142-1.179.539-1.468,2.245-.861,3.284.708,1.211,2.1,1.402,3.284.861h0Z"/><path class="g" d="M262.744,359.819c-2.29-44.04-5.19-89.76-7.3-131.92-.56-11.01-2.54-19.45-13.44-28.14-1.815-1.452-3.682-2.236-5.641-3.133-2.111-1.064-4.481-1.76-6.613-2.684-13.17-5.671-25.289-11.36-39.867-17.513-3.716-3.096-7.927-6.091-11.839-8.317-3.661,20.971-28.224,90.935-32.909,102.559-7.412-19.403-32.975-84.046-37.205-102.419-4.246,2.395-11.829,7.599-17.408,12.429-10.157,4.39-19.424,8.559-29.945,13.26-2.968,1.346-6.436,2.139-8.989,4.175,0,0,0,24.679.003,37.071-10.966-1.701-25.795-4.075-36.414-5.123-5.797,19.081-9.917,33.343-12.353,57.125-.721,7.041-1.148,12.394,2.91,19.185,1.657,2.773,5.194,6.858,10.421,7.867.27.097.541.187.812.271,16.336,5.027,34.593-3.041,47.672-19.131l4.212-5.182c-.354,5.525-.707,11.049-.707,11.049-.37,5.78-2.51,38.88-3.63,58.46l198.23.11Z"/><path class="e" d="M145.612,269.46c-.177.455-.337.86-.478,1.211-7.331-19.192-32.42-82.644-37.091-101.8,1.885-3.357,4.29-6.687,7.247-9.405,6.58,6.67,14.976,12.392,23.006,16.033.476.216,1.007.48,1.161.98.133.433-.069.891-.266,1.299-.131.271-.587.904-1.266,1.785,3.774-.005,6.472-.014,10.405-.02-.669-.872-1.118-1.497-1.248-1.765-.197-.408-.399-.866-.266-1.299.154-.5.685-.764,1.161-.98,8.03-3.641,16.425-9.363,23.006-16.033,2.833,2.604,5.159,5.769,7.006,8.982-3.746,20.718-26.734,86.493-32.376,101.012Z"/><path class="d" d="M134.559,205.978c.553-4.644.899-7.648.899-7.895,0-1.07-.259-2.139-.518-3.175-.121-.483-.242-.949-.345-1.432-.552-2.364-.932-4.106-1.398-6.47l-.357-1.143c.544-.661,1.078-1.312,1.592-1.94,1.389-1.7,2.626-3.235,3.496-4.363,3.522-.003,6.794-.007,10.408-.011.87,1.129,2.11,2.669,3.504,4.374.874,1.07,1.809,2.205,2.751,3.345l-.602,1.377c-.328,1.311-.69,2.674-1.173,4.158-.604,1.829-1.208,3.71-1.242,5.625-.017.983,2.795,19.549,5.452,37.32l.181,1.245c-5.43,15.838-10.251,29.161-12.072,33.678-2.795-7.317-8.171-21.066-14.012-36.342l.161-1.29c1.244-10.2,2.477-20.346,3.276-27.062Z"/><path class="f" d="M136.191,200.336c4.969-.002,9.938-.11,14.908-.112,1.255,0,2.458-1.104,2.4-2.4s-1.055-2.401-2.4-2.4c-4.969.002-9.938.11-14.908.112-1.255,0-2.458,1.104-2.4,2.4s1.055,2.401,2.4,2.4h0Z"/><path class="f" d="M130.883,187.644c.353,1.784.729,3.563,1.135,5.336.374,1.635,1.088,3.435,1.039,5.125-.031,1.068-.227,2.153-.349,3.213-.697,6.014-1.431,12.023-2.16,18.033-.553,4.563-1.109,9.126-1.666,13.688-.157,1.289,1.216,2.4,2.4,2.4,1.428,0,2.242-1.107,2.4-2.4.942-7.719,1.882-15.438,2.81-23.159.464-3.864,1.204-7.812,1.361-11.705.072-1.794-.542-3.61-.943-5.337-.5-2.15-.969-4.305-1.398-6.47-.252-1.272-1.768-2.002-2.952-1.676-1.327.365-1.929,1.677-1.676,2.952h0Z"/><path class="f" d="M147.529,177.145c-2.947.005-5.894.013-8.841.019-1.255.002-2.458,1.102-2.4,2.4s1.055,2.402,2.4,2.4c2.947-.005,5.894-.013,8.841-.019,1.255-.002,2.458-1.102,2.4-2.4s-1.055-2.402-2.4-2.4h0Z"/><path class="f" d="M159.339,235.11c-1.159-7.749-2.326-15.497-3.476-23.248-.427-2.881-.853-5.762-1.267-8.645-.147-1.027-.292-2.055-.433-3.083-.025-.185.056.441-.007-.052-.019-.149-.039-.297-.058-.445-.033-.261-.072-.523-.094-.785-.092-1.116.162-2.205.459-3.278.583-2.108,1.303-4.167,1.838-6.29.755-2.996-3.873-4.275-4.629-1.276-.852,3.385-2.635,6.99-2.497,10.536.058,1.481.37,2.979.577,4.443.901,6.405,1.873,12.801,2.83,19.198.709,4.734,1.419,9.468,2.127,14.202.192,1.283,1.81,1.99,2.952,1.676,1.374-.377,1.869-1.665,1.676-2.952h0Z"/><path class="f" d="M163.013,197.113c5.59-5.6,9.938-12.233,14.032-18.963,1.036-1.703,2.061-3.413,3.096-5.117.506-.832,1.258-1.715,1.258-2.734,0-1.056-.825-2.169-1.341-3.065-1.998-3.472-4.447-6.727-7.38-9.464-.945-.882-2.454-.947-3.394,0-5.653,5.693-12.225,10.452-19.356,14.125-1.508.777-3.511,1.341-4.677,2.615-1.304,1.424-.945,3.458.041,4.94,1.937,2.912,4.35,5.572,6.57,8.267,2.582,3.135,5.193,6.246,7.756,9.397.818,1.006,2.544.85,3.394,0,.995-.995.821-2.385,0-3.394-2.563-3.151-5.174-6.262-7.756-9.397-1.422-1.726-2.843-3.454-4.233-5.206-.454-.572-1.892-1.985-1.808-2.637l-.328,1.211c-.112.229-.424.199.011.018.286-.119.564-.262.845-.393.499-.232.995-.47,1.488-.713,1.071-.528,2.128-1.083,3.173-1.662,2.217-1.229,4.374-2.568,6.466-4,4.22-2.891,8.203-6.146,11.808-9.777h-3.394c3.181,2.968,5.63,6.505,7.642,10.347v-2.423c-5.255,8.566-10.15,17.461-17.308,24.631-2.185,2.189,1.208,5.584,3.394,3.394Z"/><path class="f" d="M126.653,193.718c-7.158-7.17-12.053-16.065-17.308-24.631v2.423c2.013-3.842,4.461-7.378,7.642-10.347h-3.394c3.605,3.631,7.588,6.887,11.808,9.777,2.033,1.392,4.128,2.695,6.279,3.896,1.044.583,2.102,1.142,3.173,1.675.494.245.99.485,1.489.719.295.138.59.276.887.41.098.043.193.092.285.147.233.134.189.102-.13-.097l-.328-1.211c.084.652-1.354,2.065-1.808,2.637-1.391,1.752-2.811,3.48-4.233,5.206-2.582,3.135-5.193,6.246-7.756,9.397-.817,1.005-.983,2.411,0,3.394.844.844,2.572,1.011,3.394,0,4.614-5.673,9.513-11.155,13.87-17.031.794-1.071,1.426-2.22,1.333-3.602-.158-2.342-2.427-3.056-4.208-3.929-3.543-1.736-6.945-3.758-10.188-6.005-3.753-2.6-7.256-5.537-10.474-8.777-.936-.943-2.447-.883-3.394,0-2.932,2.736-5.384,5.992-7.38,9.464-.483.84-1.167,1.782-1.298,2.746-.158,1.168.641,2.109,1.215,3.053,1.036,1.703,2.06,3.414,3.096,5.117,4.094,6.73,8.442,13.364,14.032,18.963,2.185,2.189,5.58-1.204,3.394-3.394Z"/><path class="f" d="M52.798,200.19c2.557-1.962,5.717-2.749,8.631-4.016,3.416-1.486,6.804-3.042,10.205-4.56,6.705-2.994,13.418-5.969,20.158-8.884,1.19-.515,1.459-2.261.861-3.284-.719-1.229-2.089-1.378-3.284-.861-6.74,2.915-13.453,5.89-20.158,8.884-3.4,1.518-6.774,3.115-10.205,4.56-2.93,1.234-6.071,2.052-8.631,4.016-1.027.788-1.574,2.065-.861,3.284.591,1.01,2.249,1.655,3.284.861h0Z"/><path class="f" d="M188.631,178.484c8.564,3.617,17.049,7.414,25.538,11.203,4.031,1.799,8.065,3.592,12.114,5.351,1.979.86,3.962,1.688,5.982,2.447,1.869.702,3.67,1.48,5.263,2.705,1.029.79,2.688.158,3.284-.861.724-1.237.17-2.491-.861-3.284-3.197-2.457-7.383-3.475-11.041-5.063-4.117-1.788-8.219-3.611-12.318-5.44-8.489-3.789-16.974-7.585-25.538-11.203-1.193-.504-2.57-.359-3.284.861-.588,1.006-.34,2.776.861,3.284h0Z"/><path class="f" d="M233.133,198.124c-1.955,12.351-3.87,24.708-5.705,37.077s-3.556,24.635-4.584,37.059c-.799,9.652-1.46,19.316-2.093,28.981-.085,1.295,1.164,2.4,2.4,2.4,1.37,0,2.315-1.101,2.4-2.4.978-14.932,1.768-29.952,3.682-44.801,1.603-12.434,3.627-25.478,5.577-38.135.971-6.303,1.955-12.604,2.952-18.904.202-1.279-.328-2.582-1.676-2.952-1.141-.314-2.748.389-2.952,1.676h0Z"/><path class="f" d="M56.947,245.918c.998,6.579,2.664,13.099,4.064,19.6.778,3.613,1.56,7.225,2.307,10.844.23,1.113.462,2.227.662,3.346.033.186.06.374.097.559.122.625-.093-.802-.011-.095.121,1.048.265,2.094.393,3.142.729,5.929,1.459,11.943,1.289,17.926-.088,3.09,4.712,3.087,4.8,0,.155-5.453-.457-10.932-1.097-16.339-.34-2.868-.676-5.721-1.247-8.552-1.518-7.527-3.209-15.02-4.799-22.532-.645-3.045-1.363-6.097-1.83-9.176-.195-1.283-1.809-1.991-2.952-1.676-1.371.377-1.871,1.666-1.676,2.952h0Z"/><path class="f" d="M105.705,169.418c1.227,5.036,2.877,9.975,4.528,14.884,2.309,6.867,4.757,13.688,7.247,20.492,5.494,15.017,11.216,29.95,16.977,44.867,2.445,6.331,4.905,12.656,7.343,18.99.465,1.209,1.614,2.044,2.952,1.676,1.156-.318,2.144-1.736,1.676-2.952-4.869-12.65-9.795-25.278-14.619-37.945-5.578-14.645-11.119-29.317-16.183-44.15-1.929-5.649-3.878-11.333-5.292-17.138-.731-3-5.361-1.729-4.629,1.276h0Z"/><path class="f" d="M175.729,167.475c-.938,5.333-2.397,10.583-3.864,15.79-2.049,7.272-4.277,14.494-6.567,21.693-4.825,15.174-9.936,30.261-15.234,45.276-2.011,5.7-4.037,11.397-6.181,17.048-.46,1.212.51,2.632,1.676,2.952,1.35.371,2.491-.46,2.952-1.676,4.479-11.805,8.581-23.761,12.642-35.714,5.151-15.161,10.183-30.381,14.618-45.769,1.74-6.037,3.496-12.13,4.586-18.325.224-1.275-.343-2.586-1.676-2.952-1.159-.318-2.726.393-2.952,1.676h0Z"/><path class="f" d="M142.6,269.331c-3.803,9.235-5.468,19.524-4.792,29.46.807,11.867,1.307,23.75,2.108,35.618.571,8.453,1.226,16.901,1.968,25.34.114,1.291,1.022,2.4,2.4,2.4,1.21,0,2.514-1.101,2.4-2.4-1.237-14.06-2.271-28.144-2.974-42.242-.278-5.573-.586-11.14-.965-16.707-.325-4.771-.518-9.424.206-14.19.823-5.42,2.185-10.922,4.278-16.004.494-1.199-.535-2.639-1.676-2.952-1.378-.379-2.457.473-2.952,1.676h0Z"/><path class="f" d="M160.874,283.045c-.701-.299-1.404-.614-2.157-.76-.986-.191-1.97-.133-2.944.116-1.54.394-3.027,1.324-4.037,2.553-2.069,2.517-2.49,6.103-.57,8.835,1.787,2.542,4.556,4.222,7.736,4.087,3.136-.133,5.736-2.103,6.561-5.162.99-3.668-1.101-8.093-4.59-9.668-1.142-.515-2.635-.367-3.284.861-.555,1.05-.361,2.732.861,3.284.243.11.479.229.706.369.109.068.212.144.319.215.278.185-.44-.396-.072-.043.182.175.353.355.527.537.251.263-.144-.081-.09-.13-.002.002.231.329.264.38.144.222.276.451.4.684.064.12.125.242.184.365l.036.074c.115.253.11.238-.015-.045.119.068.205.651.229.763.089.414-.113.144.001-.05-.033.056.012.442.009.514-.002.05-.094.589-.011.216.09-.403-.059.223-.064.243-.034.138-.27.644-.23.737-.019-.042.266-.529.067-.174-.057.102-.107.207-.167.308-.058.098-.123.191-.184.287-.247.393.375-.387.047-.072-.147.141-.333.289-.465.44.342-.39.354-.252.18-.151-.109.063-.213.134-.324.194-.067.036-.169.069-.225.113.387-.304.425-.152.162-.076-.228.066-.452.127-.683.182-.456.11.503-.02.183-.02-.11,0-.223.02-.333.024-.228.01-.456.006-.683-.01-.083-.006-.2-.034-.278-.025.505-.06.415.066.146.013-.263-.052-.523-.111-.781-.187-.119-.035-.237-.082-.356-.115-.317-.089.53.284.083.037-.202-.111-.406-.214-.6-.34-.034-.022-.324-.204-.317-.219.016-.035.395.339.123.087-.225-.209-.452-.409-.66-.636-.068-.074-.134-.148-.199-.224l-.095-.114c-.159-.199-.123-.152.108.141-.026-.155-.263-.381-.347-.519-.1-.165-.185-.337-.278-.506-.22-.401.171.568.059.148-.027-.1-.068-.196-.095-.297-.016-.062-.021-.184-.053-.239l.045.328c-.01-.109-.016-.219-.017-.328-.002-.113,0-.227.004-.34.002-.044.012-.61.003-.195-.008.394.026-.117.04-.182.023-.105.048-.21.077-.314.013-.046.162-.403.145-.431.064.103-.251.51.016.023.049-.089.101-.178.155-.264.054-.087.111-.172.171-.256-.207.258-.253.318-.14.179.191-.214.379-.426.593-.617-.003.003.212-.206.239-.202-.28.213-.315.245-.106.096.065-.044.131-.087.199-.127.112-.069.226-.134.342-.195.07-.037.14-.072.212-.105.164-.076.094-.048-.211.086,0-.08.849-.247.911-.262.368-.09-.143.096-.166.018,0,0,.417-.015.479-.022.449-.051-.568-.16-.082-.014.152.046.308.076.46.123.214.066,1.16.446.402.123.619.264,1.171.429,1.849.242.557-.153,1.16-.584,1.434-1.103.544-1.03.372-2.758-.861-3.284Z"/><path class="f" d="M220.744,301.249c.065,5.788.38,11.579.625,17.361.382,8.999.792,17.996,1.198,26.993.214,4.732.428,9.464.636,14.196.136,3.077,4.936,3.094,4.8,0-.746-16.932-1.585-33.86-2.224-50.797-.098-2.583-.206-5.168-.236-7.753-.035-3.087-4.835-3.095-4.8,0h0Z"/><path class="f" d="M232.723,197.511c2.314,1.232,4.83,2.096,7.021,3.554,2.1,1.397,4.003,3.285,5.692,5.149,2.714,2.994,4.761,6.503,5.924,10.377,1.196,3.981,1.522,8.097,1.73,12.229.296,5.896.604,11.791.92,17.687,1.29,24.054,2.71,48.1,4.076,72.149.78,13.72,1.543,27.441,2.257,41.164.16,3.073,4.961,3.092,4.8,0-1.295-24.888-2.751-49.767-4.175-74.648-.702-12.26-1.396-24.521-2.057-36.784-.318-5.908-.629-11.816-.929-17.724-.235-4.63-.451-9.296-1.574-13.815-1.203-4.841-3.515-9.235-6.72-13.046-1.877-2.232-4.037-4.221-6.336-6.011-2.495-1.942-5.444-2.953-8.207-4.425-2.725-1.452-5.153,2.69-2.423,4.145h0Z"/><path class="e" d="M61.749,178.992c.565-2.173-.146-4.274-1.812-5.778-.987-.891-2.399-.772-3.388-.566.316-.897.407-1.797.299-2.665,1.215-2.456,1.803-4.866,1.244-6.494-.621-1.812-1.743-3.14-3.503-3.882-4.124-1.725-12.129-1.95-12.129-1.95h-.022c-.889-.15-1.805-.134-2.646.121l-1.945.088c-.201-1.99-1.479-3.848-3.4-4.455-2.293-.725-5.101.486-6.93,2.047-1.091.931-1.932,2.114-2.763,3.283-2.03,2.861-4.061,5.721-6.091,8.582-3.628,5.112-7.439,10.945-6.444,17.134.675,4.203,3.486,9.607,4.95,13.603,2.473,6.752,6.294,11.518,6.561,19.044l26.985,6.258c.394-2.306.612-4.569,2.143-6.296,1.531-1.727,2.725-4.287,4.132-6.117,2.287-2.977,2.886-6.56,1.759-10.14-1.102-3.501-3.196-5.974-3.011-9.639.114-2.242,1.286-4.339,2.565-6.185s2.883-3.821,3.448-5.994Z"/><path class="f" d="M26.13,217.104c-.241-5.316-2.239-9.951-4.483-14.691-1.013-2.139-1.866-4.314-2.753-6.505-.94-2.321-1.985-4.599-2.869-6.943-.851-2.255-1.642-4.585-1.559-7.023.086-2.534,1.078-4.978,2.265-7.183,2.704-5.024,6.38-9.577,9.675-14.22,1.509-2.126,3.19-4.447,5.96-4.896,2.137-.346,3.254,1.438,3.083,3.38-.184,2.084,2.745,3.152,4.097,1.697,1.139-1.225,3.146-.842,4.416.043s1.319,3.206.983,4.702c-.44,1.954,1.669,3.872,3.526,2.71,1.628-1.019,3.144-1.507,4.716-.137,1.232,1.074,1.539,2.437,1.048,3.966-.602,1.876,1.262,3.266,2.952,2.952.245-.045.307-.063.568-.056.168.005.701.122.573.057-.137-.07.393.418.504.562.182.235.358.517.472.793.612,1.482-.104,2.965-.868,4.234-1.955,3.245-4.537,5.962-5.021,9.887-.47,3.812,1.501,6.807,2.75,10.226.564,1.543.907,3.161.669,4.81-.254,1.761-1.129,3.17-2.15,4.583-1.168,1.617-2.033,3.451-3.27,5.019-1.392,1.764-2.241,3.448-2.679,5.673-.25,1.271.361,2.591,1.676,2.952,1.179.324,2.701-.398,2.952-1.676.161-.816.319-1.679.681-2.433.457-.951,1.261-1.709,1.863-2.567,1.151-1.642,2.104-3.405,3.283-5.029,2.561-3.528,3.14-8.108,1.742-12.216-1.156-3.397-3.764-6.704-2.358-10.424,1.463-3.872,5.119-6.513,5.677-10.805.308-2.371-.48-4.702-2.07-6.477-1.684-1.882-3.899-2.18-6.271-1.741l2.952,2.952c1.041-3.245.019-6.705-2.589-8.901-3.131-2.636-6.872-2.449-10.226-.349l3.526,2.71c.814-3.615.184-8.005-3.188-10.123-3.11-1.953-7.596-2.128-10.233.708l4.097,1.697c.249-2.821-1.14-5.654-3.523-7.18-2.573-1.647-5.791-1.121-8.376.183-2.901,1.464-4.676,4.101-6.504,6.675-1.919,2.703-3.851,5.398-5.755,8.111-3.42,4.872-6.929,10.587-6.379,16.798.493,5.56,3.448,10.746,5.439,15.875,2.264,5.832,5.887,11.197,6.178,17.617.139,3.076,4.94,3.093,4.8,0h0Z"/><path class="f" d="M27.542,176.559c2.025-3.399,4.381-6.565,6.772-9.712.581-.765,1.162-1.529,1.737-2.299.278-.372.561-.741.83-1.12.284-.401-.317.329.032-.031.115-.119.221-.248.335-.369,1.133-1.201,2.023-1.952,3.418-2.71,1.138-.619,1.501-2.19.861-3.284-.672-1.15-2.141-1.482-3.284-.861-1.529.832-2.94,1.992-4.163,3.226-1.343,1.356-2.395,3.028-3.547,4.545-2.512,3.307-5.007,6.619-7.136,10.191-.664,1.114-.251,2.633.861,3.284,1.131.661,2.618.256,3.284-.861h0Z"/><path class="f" d="M39.419,180.268c1.32-2.303,2.758-4.537,4.334-6.673.187-.253.376-.505.567-.756.076-.101.214-.275.057-.075.097-.124.194-.248.292-.371.414-.522.837-1.037,1.269-1.545.879-1.032,1.798-2.029,2.755-2.988.888-.89.956-2.517,0-3.394s-2.447-.95-3.394,0c-3.941,3.951-7.253,8.545-10.024,13.38-.625,1.09-.291,2.675.861,3.284,1.142.604,2.617.303,3.284-.861h0Z"/><path class="f" d="M49.414,184.259c.581-.884,1.162-1.769,1.76-2.642.291-.425.586-.848.887-1.266.15-.209.302-.417.455-.624.085-.115.171-.229.257-.343s.371-.398-.011.01c.697-.744,1.286-1.595,1.986-2.343.738-.789,1.524-1.53,2.36-2.215.975-.799.891-2.576,0-3.394-1.036-.951-2.354-.853-3.394,0-3.478,2.85-5.998,6.671-8.444,10.395-.691,1.052-.244,2.7.861,3.284,1.2.634,2.547.261,3.284-.861h0Z"/><path class="e" d="M20.153,218.834c-.728,3.33-1.572,7.6-2.519,11.495,10.685,1.173,24.65,3.421,34.891,5.004.089,1.912,1.838-11.387,2.215-13.404-1.322-.244-25.237-3.54-34.245-4.626-.111.482-.225.994-.342,1.531Z"/><path class="f" d="M42.459,160.057c.946,0,1.891-.02,2.837.015.55.02,1.099.052,1.647.098.227.019.454.041.68.065.081.009.602.071.31.032,1.888.253,4.307.847,5.753,1.553.166.081.329.166.487.26.042.025.61.422.216.113.137.108.266.227.391.349.051.05.472.51.301.302-.189-.231.151.219.183.269.117.182.213.372.321.559.245.428-.067-.281.115.24.057.164.116.326.162.494.043.157.07.316.107.474-.128-.543-.016.01-.013.151.003.208-.01.414-.025.621.025-.361.012-.081-.03.124-.203.993-.515,1.726-.918,2.541-.574,1.161-.312,2.598.861,3.284,1.06.62,2.707.306,3.284-.861,1.107-2.24,1.942-4.613,1.47-7.136-.417-2.231-1.864-4.245-3.729-5.494-1.03-.69-2.279-1.106-3.449-1.491-1.154-.38-2.337-.671-3.535-.874-2.474-.419-4.926-.487-7.426-.487-1.255,0-2.458,1.104-2.4,2.4s1.055,2.4,2.4,2.4h0Z"/><path class="f" d="M54.995,235.841c1.006-4.357,1.259-8.877,2.06-13.274.215-1.183-.312-2.708-1.676-2.952-3.227-.578-6.508-.936-9.755-1.383-5.746-.792-11.495-1.57-17.246-2.325-2.626-.345-5.252-.686-7.882-1.004-.992-.12-2.101.827-2.314,1.762-.963,4.214-1.772,8.462-2.775,12.668-.716,3.003,3.912,4.284,4.629,1.276,1.002-4.206,1.811-8.453,2.775-12.668l-2.314,1.762c9.997,1.208,19.858,2.583,29.834,3.99,1.257.177,2.524.327,3.773.551l-1.676-2.952c-.801,4.396-1.054,8.916-2.06,13.274-.694,3.006,3.933,4.289,4.629,1.276h0Z"/><path class="f" d="M62.942,293.684c-5.904,7.219-13.316,13.586-22.06,17.072-3.941,1.571-8.112,2.612-12.359,2.805-1.95.089-3.929.037-5.864-.228-2.216-.303-4.288-1.012-6.446-1.533-3.8-.918-6.773-3.788-8.65-7.05-2.461-4.277-3.029-8.776-2.695-13.632.7-10.163,2.307-20.352,4.448-30.306,2.189-10.176,5.151-20.154,8.175-30.107l-2.314,1.762c13.143,1.31,26.179,3.576,39.229,5.569l-1.762-2.314c-1.056,9.742-2.207,19.564-3.584,29.153-.433,3.014-.882,6.029-1.465,9.019-.248,1.271.36,2.591,1.676,2.952,1.177.323,2.703-.398,2.952-1.676,2.299-11.785,3.467-23.844,4.811-35.768.138-1.226.276-2.453.409-3.68.101-.936-.811-2.169-1.762-2.314-13.474-2.058-26.936-4.389-40.505-5.741-1.054-.105-2.029.823-2.314,1.762-2.822,9.29-5.598,18.601-7.728,28.079-2.381,10.592-4.009,21.386-4.954,32.2-.468,5.36-.114,10.506,2.185,15.444,1.892,4.064,4.951,7.806,8.978,9.899,2.211,1.149,4.747,1.799,7.164,2.367,2.265.533,4.602.849,6.927.949,4.487.192,9.046-.472,13.334-1.786,10.961-3.359,20.38-10.711,27.568-19.501.82-1.003.981-2.413,0-3.394-.846-.846-2.569-1.008-3.394,0h0Z"/><path class="f" d="M66.914,359.709c.976-17.042,2.067-34.078,3.159-51.113.157-2.449.315-4.898.471-7.347.083-1.295-1.162-2.4-2.4-2.4-1.368,0-2.317,1.101-2.4,2.4-.939,14.669-1.879,29.337-2.772,44.009-.293,4.817-.582,9.633-.858,14.451-.177,3.086,4.624,3.076,4.8,0h0Z"/><path class="f" d="M105.096,166.1c-2.33,1.365-4.448,3.152-6.532,4.855-2.708,2.213-5.344,4.517-7.901,6.903-2.165,2.021-4.35,4.089-6.193,6.415-.671.847-1.407,1.756-1.714,2.816-.42,1.452.24,2.41,1.057,3.525,2.92,3.987,5.815,8.119,9.289,11.651v-3.394c-2.096,1.849-4.179,3.766-5.907,5.972-1.016,1.298-2.247,2.958-1.82,4.71.272,1.115.937,2.19,1.507,3.176,2.428,4.205,5.203,8.223,7.939,12.231,7.816,11.45,15.928,22.725,24.395,33.703,3.157,4.093,6.273,8.441,10.011,12.036,2.227,2.142,5.626-1.248,3.394-3.394-2.998-2.883-5.541-6.303-8.096-9.569-1.695-2.166-3.49-4.523-5.356-7.009-2.071-2.759-4.119-5.534-6.152-8.322-7.18-9.849-14.403-19.768-20.815-30.142-.48-.776-.953-1.557-1.402-2.352-.176-.312-.35-.626-.513-.945-.093-.183-.395-.95-.226-.442.183.548-.044-.081-.052-.214-.026-.463.075,1.13.027.906-.03-.139.22-.308-.006-.025.15-.188.264-.48.396-.684,1.545-2.395,3.953-4.376,6.07-6.243.978-.863.865-2.515,0-3.394-2.793-2.839-5.166-6.099-7.524-9.298-.461-.625-.919-1.252-1.378-1.878-.048-.065-.503-.568-.469-.644.004-.009.283,1.064.282,1.012-.006-.303-.126.715-.046.377.107-.45-.301.425-.079.167.1-.116.168-.306.249-.437.106-.171.226-.331.337-.498.339-.508-.23.253.204-.266,3.866-4.622,8.55-8.643,13.179-12.476.653-.54,1.31-1.075,1.973-1.603.307-.245.616-.488.926-.728.308-.239-.255.194.046-.034.17-.13.34-.259.511-.387.908-.681,1.83-1.358,2.81-1.932,2.664-1.561.251-5.711-2.423-4.145h0Z"/><path class="f" d="M177.325,169.859c.853.499,1.665,1.069,2.467,1.645.486.348.967.703,1.446,1.061.539.403,1.25.946,1.509,1.148,2.663,2.071,5.27,4.216,7.817,6.428,2.255,1.958,4.504,3.956,6.545,6.14.354.379.687.773,1.029,1.162.44.501-.168-.305.1.126.1.161.211.328.321.483.159.226.225.657-.021-.129.161.514-.002-.37.024-.59.042-.366.519-.886,0-.407-.102.094-.196.258-.498.634-2.868,3.572-5.942,7.001-9.069,10.348-.836.895-1.009,2.522,0,3.394,2.034,1.758,4.057,3.576,5.804,5.626.257.301.497.603.718.931.126.187.244.377.355.573.194.342.028.045.043.041l.059.185-.044-.442c-.002.02,0,.043,0,.064.012-.676.182-.684.046-.409-.067.135-.108.322-.152.467-.23.746.238-.485-.071.181-.286.616-.575,1.229-.881,1.835-2.163,4.288-4.587,8.451-6.994,12.605-6.574,11.343-13.379,22.562-20.421,33.621-1.504,2.362-3.021,4.717-4.579,7.044-.591.884-1.188,1.764-1.8,2.634-.244.347-.49.692-.74,1.034-.103.141-.208.28-.311.42-.421.575.303-.382-.014.021-.8,1.018-.993,2.401,0,3.394.832.832,2.589,1.025,3.394,0,2.618-3.331,4.88-6.953,7.165-10.514,3.547-5.529,7.005-11.116,10.424-16.725,6.176-10.134,12.516-20.292,17.901-30.877.633-1.245,1.404-2.578,1.726-3.945.42-1.783-.741-3.404-1.784-4.735-1.872-2.389-4.162-4.445-6.451-6.423v3.394c3.004-3.214,5.942-6.509,8.722-9.919,1.061-1.302,2.534-2.64,2.122-4.475-.226-1.007-.884-1.84-1.514-2.626-1.741-2.173-3.859-4.064-5.927-5.917-2.734-2.451-5.556-4.808-8.434-7.089-2.443-1.936-4.913-3.982-7.612-5.56-2.672-1.563-5.091,2.584-2.423,4.145h0Z"/><path class="h" d="M82.138,48.998c-.294.92-.573,1.858-.839,2.817-3.21,11.593-1.091,27.869.662,35.269l.123.519c1.052-.672,2.482-1.19,4.422-1.258,1.947-.069,4.222.541,5.911,2.164l8.36-7.02c6.274-6.991,17.347-17.529,25.118-21.604.911-.478,2.082.169,2.451,1.691.357,1.471.355,2.588.239,3.646-.176,1.605,1.382,2.773,2.705,2.038,5.547-3.081,15.432-9.284,22.441-12.237l10.393,1.277c3.346,1.455,5.891,2.853,9.573,6.02,6.309,5.429,12.357,12.876,15.036,19.616l8.297,6.573c1.689-1.623,3.964-2.233,5.911-2.164,1.301.046,2.373.294,3.256.654,2.05-8.02,2.924-13.963,2.616-21.272-.904-21.403-10.224-36.423-20.509-44.314l-9.711-6.574c-3.39-3.143-7.357-5.813-11.553-7.799-4.508-2.131-15.264-4.663-21.989-4.627-18.177.108-32.143,3.95-43.443,16.542-2.107,2.349-4.034,5.792-6.299,7.989-6.012,5.832-10.283,13.012-13.172,22.054Z"/><path class="f" d="M135.147,132.458c3.158,1.668,6.56,2.363,10.131,2.34,3.608-.023,7.278-.723,10.17-2.977,1.023-.797.837-2.557,0-3.394-1.01-1.01-2.368-.799-3.394,0,.712-.555.101-.09-.081.027-.206.132-.418.254-.635.368-.153.08-.902.391-.297.161-.291.11-.579.223-.876.318-1.866.6-3.23.709-5.218.697-1.947-.012-3.161-.127-4.978-.67-.321-.096-.633-.211-.95-.319-.103-.035-.202-.089-.306-.119.593.173.178.08.019.005-.393-.185-.78-.378-1.163-.581-1.146-.605-2.61-.291-3.284.861-.634,1.084-.289,2.676.861,3.284h0Z"/><path class="f" d="M144.179,108.434c.448,1.707.877,3.44,1.134,5.187l-.086-.638c.03.239.044.475.019.716l.086-.638c-.017.111-.041.216-.079.322l.242-.573c-.033.075-.068.139-.114.207l.375-.486c-.053.065-.104.115-.169.167l.486-.375c-.131.084-.269.152-.411.217l.573-.242c-.226.094-.45.163-.692.202l.638-.086c-.218.026-.432.024-.65-.001l.638.086c-.245-.034-.486-.094-.731-.127-.67-.09-1.239-.115-1.849.242-.498.291-.973.862-1.103,1.434-.14.614-.11,1.304.242,1.849.312.484.835,1.022,1.434,1.103.535.072,1.054.209,1.598.233.822.036,1.589-.213,2.325-.549.903-.412,1.605-1.209,1.846-2.181.203-.822.114-1.556-.025-2.379-.282-1.671-.668-3.327-1.098-4.966-.318-1.214-1.729-2.072-2.952-1.676-1.25.404-2.018,1.651-1.676,2.952h0Z"/><path class="f" d="M116.395,93.815c-.866,2.815-.302,9.29,5.031,9.841,7.048-.042,7.423-7.871,5.05-11.551-1.943-3.014-7.654-4.267-10.081,1.711Z"/><path class="f" d="M173.052,93.815c.866,2.815.302,9.29-5.031,9.841-7.048-.042-7.423-7.871-5.051-11.552,1.942-3.014,7.654-4.267,10.081,1.711Z"/><path class="f" d="M94.114,86.812c-3.432-3.116-8.54-3.733-12.668-1.613-2.977,1.529-4.64,4.603-5.351,7.761-1.693,7.516.222,16.035,4.615,22.337,3.102,4.451,7.509,7.705,13.156,6.915,1.285-.18,1.988-1.819,1.676-2.952-.38-1.383-1.663-1.857-2.952-1.676-3.168.443-5.948-2.197-7.625-4.554-1.634-2.297-2.743-4.873-3.625-7.537-.962-2.907-1.208-6.013-.955-9.055.116-1.392.383-2.824.903-4.126.175-.438.395-.859.648-1.258.102-.161.208-.322.324-.474-.282.369.252-.252.351-.353.713-.725,1.988-1.287,3.256-1.439,1.749-.211,3.531.222,4.85,1.419,2.283,2.072,5.687-1.312,3.394-3.394h0Z"/><path class="f" d="M198.728,90.206c2.041-1.853,5.49-1.981,7.708-.343.103.076.096.069.311.279.194.189.379.384.554.591-.247-.294.029.037.111.166.12.19.239.379.348.575.669,1.205.997,2.621,1.197,3.975.839,5.676-.73,11.658-3.744,16.489-1.715,2.749-4.718,6.155-8.354,5.646-1.282-.179-2.578.312-2.952,1.676-.309,1.123.384,2.772,1.676,2.952,9.335,1.306,14.732-7.958,17.203-15.592,1.247-3.852,1.43-8.105.852-12.092-.493-3.399-1.81-6.673-4.667-8.731-4.069-2.932-10.018-2.269-13.636,1.015-2.292,2.081,1.11,5.467,3.394,3.394h0Z"/><path class="f" d="M194.225,115.307c-.452,2.208-1.11,4.372-1.856,6.497-.596,1.698-1.114,2.764-1.722,4.344.098-.255.134-.291-.071.149-.091.196-.181.394-.274.589-.255.537-.525,1.067-.802,1.594-.649,1.233-1.344,2.441-2.069,3.631-3.801,6.238-8.439,12.144-14.122,16.776-3.108,2.534-6.625,4.564-10.513,5.458-3.009.692-1.735,5.321,1.276,4.629,7.968-1.833,14.585-7.702,19.763-13.76,4.237-4.957,8.193-10.525,10.884-16.495.175-.387.342-.779.503-1.172.058-.142.377-.892.097-.247.417-.96.828-1.921,1.197-2.901.958-2.542,1.791-5.153,2.336-7.817.26-1.269-.368-2.593-1.676-2.952-1.187-.326-2.691.4-2.952,1.676h0Z"/><path class="f" d="M90.444,116.397c1.74,7.69,4.864,15.14,9.237,21.705,4.717,7.081,10.915,13.703,18.419,17.856,3.809,2.108,7.966,3.534,12.272,4.168,1.281.189,2.579-.319,2.952-1.676.311-1.13-.386-2.762-1.676-2.952-15.552-2.289-27.183-15.76-33.109-29.561-1.495-3.481-2.632-7.123-3.467-10.816-.681-3.012-5.31-1.737-4.629,1.276h0Z"/><path class="f" d="M208.812,86.446c1.348-5.497,2.344-11.091,2.451-16.763.102-5.361-.44-10.775-1.497-16.029-1.789-8.889-5.369-17.549-10.861-24.799-2.584-3.411-5.513-6.52-8.904-9.139-1.025-.792-2.395-.999-3.394,0-.826.826-1.032,2.597,0,3.394,13.482,10.416,19.599,27.796,19.859,44.402.094,6.006-.856,11.839-2.283,17.658-.735,3,3.892,4.28,4.629,1.276h0Z"/><path class="f" d="M162.914,58.371c5.245,2.297,9.529,5.706,13.493,9.814,4.017,4.164,7.823,8.982,10.013,14.388.486,1.2,1.599,2.048,2.952,1.676,1.139-.313,2.166-1.744,1.676-2.952-2.465-6.085-6.438-11.452-10.943-16.188-4.281-4.5-9.055-8.381-14.769-10.883-1.186-.519-2.576-.348-3.284.861-.595,1.018-.333,2.761.861,3.284h0Z"/><path class="f" d="M102.475,83.186c6.236-6.93,13.14-13.718,20.884-18.955.844-.571,1.703-1.12,2.585-1.63.219-.127.886-.453.823-.498.555.4-.944-.121-.778-.17-.191-.206-.178-.15.039.167-.002.112.015.222.053.329.285,1.053.074,2.067.093,3.129.025,1.434.78,2.853,1.991,3.632,2.269,1.461,4.35.152,6.368-1.01,1.933-1.113,3.855-2.247,5.784-3.368,4.759-2.765,9.555-5.56,14.627-7.718,1.193-.508,1.456-2.266.861-3.284-.722-1.235-2.086-1.371-3.284-.861-4.482,1.907-8.742,4.325-12.957,6.752-2.117,1.219-4.221,2.459-6.334,3.686-.806.468-1.612.934-2.424,1.392-.149.084-.347.171-.489.275-.41.302.121.014.51.144.026.009.023.045.059.046.07.371.101.42.094.145.002-.163.015-.326.037-.488.148-2.467-.197-5.716-2.597-7.057-2.283-1.276-4.468.294-6.376,1.512-4.122,2.632-7.922,5.802-11.554,9.065-3.994,3.588-7.817,7.378-11.409,11.369-2.061,2.291,1.322,5.696,3.394,3.394h0Z"/><path class="f" d="M84.275,86.446c-2.145-9.142-2.946-19.05-1.779-28.379.659-5.272,2.375-10.53,4.616-15.335,2.156-4.622,4.943-8.922,8.452-12.631,1.947-2.059,3.736-4.09,5.395-6.399,1.526-2.125,3.182-4.06,5.073-5.872,3.392-3.251,7.263-5.921,11.51-7.934,8.718-4.131,19.034-5.365,28.595-5.069,5.378.166,10.823,1.339,15.95,2.923,2.585.799,4.274,1.529,6.649,2.868,2.944,1.66,5.67,3.632,8.16,5.917,2.272,2.086,5.676-1.3,3.394-3.394-4.272-3.921-9.271-7.295-14.742-9.29-4.854-1.77-10.013-2.824-15.129-3.466-5.268-.662-10.666-.387-15.93.196-5.168.573-10.301,1.57-15.182,3.4-4.822,1.808-9.249,4.307-13.286,7.502-2.1,1.661-4.056,3.508-5.854,5.491-1.933,2.132-3.401,4.613-5.232,6.823-1.765,2.129-3.839,3.963-5.558,6.145-1.682,2.135-3.216,4.371-4.55,6.741-2.832,5.031-5.019,10.63-6.284,16.266-1.38,6.15-1.517,12.575-1.129,18.843.33,5.34,1.01,10.716,2.233,15.929.705,3.006,5.335,1.734,4.629-1.276h0Z"/></g></svg>