<?xml version="1.0" encoding="UTF-8"?><svg id="b" xmlns="http://www.w3.org/2000/svg" width="254.637" height="294.417" viewBox="0 0 254.637 294.417"><defs><style>.d{fill:#fff;}.e{fill:none;}.f{fill:#7abee6;}.g{fill:#211715;}.h{fill:#c6c6c6;}</style></defs><g id="c"><path class="g" d="M2.318,265.304c2.581,0,5.162,0,7.742,0,6.2,0,12.401,0,18.601,0,8.904,0,17.809,0,26.713,0,10.754,0,21.509,0,32.263,0,11.776,0,23.552,0,35.328,0,11.883,0,23.765,0,35.648,0,11.072,0,22.145,0,33.217,0,9.434,0,18.868,0,28.303,0,6.945,0,13.889,0,20.834,0,3.538,0,7.076,0,10.615,0,.245,0,.49,0,.735,0,3.089,0,3.094-4.8,0-4.8-2.585,0-5.17,0-7.755,0-6.204,0-12.407,0-18.611,0-8.907,0-17.814,0-26.721,0-10.756,0-21.512,0-32.268,0-11.777,0-23.554,0-35.33,0-11.882,0-23.765,0-35.647,0-11.071,0-22.142,0-33.213,0-9.432,0-18.864,0-28.296,0-6.941,0-13.883,0-20.824,0-3.534,0-7.068,0-10.602,0-.244,0-.488,0-.732,0-3.089,0-3.094,4.8,0,4.8h0Z"/><path class="f" d="M167.434,140.212c8.454,3.011,18.187-2.176,20.901-10.604,2.224-6.906-.54-15.856-2.599-22.812-3.549-11.987-4.973-24.163-5.141-36.643.236-7.205-.266-15.747-.523-19.324-.889-12.399-6.471-26.244-14.502-33.939-3.198-3.064-4.307-4.623-7.415-6.442,0,0-1.799-1.053-3.598-2.106l-3.574-1.449c-6.643-2.693-13.564-4.481-23.393-4.481-16.115,0-30.459,8.302-36.824,14.396-10.559,10.109-17.257,28.574-16.411,54.036,0,17.257-1.414,29.702-3.396,36.778-1.347,4.841-2.499,12.904-2.548,17.823-.059,7.145,7.917,17.066,20.418,14.992"/><path class="d" d="M148.308,37.604c4.899,11.738,13.286,23.602,21.893,30.528,1.071-.57,2.261-.79,3.326-.752,3.346.118,4.77,1.928,5.382,2.99,1.829,3.172,1.752,9.016.524,12.633-.869,2.561-2.294,6.479-5.727,9.288-1.415,1.158-3.497,1.92-5.488,1.584,0,0-.135-.023-.378-.063-.65,1.896-1.463,3.582-1.737,4.415-1.416,3.844-9.402,17.564-19.405,22.4.035,2.613-.046,3.171.145,5.952.087,1.116.173,2.319.587,3.406.548,1.424,1.299,2.665,2.492,3.637,1.433,1.154,2.896,1.963,4.476,2.667-1.157,5.019-2.407,10.122-3.731,15.245-6.832,3.177-14.419,4.614-22.024,4.409-7.96.214-15.902-1.37-22.978-4.867-1.247-4.839-2.427-9.659-3.525-14.405,1.929-.799,3.652-1.685,5.357-3.051,1.193-.972,1.944-2.213,2.492-3.637.414-1.087.5-2.29.587-3.406.189-2.551.114-3.231.163-5.348-4.797-2.302-9.226-6.03-13.109-10.678-4.693-5.617-7.45-11.649-9.027-16.746-2.08.484-4.306-.297-5.794-1.514-3.433-2.809-4.858-6.727-5.727-9.288-1.228-3.616-1.305-9.461.524-12.633.613-1.063,2.036-2.872,5.382-2.99.861-.03,1.802.107,2.698.459,8.927-2.8,20.501-5.958,31.009-10.949,17.05-8.099,22.175-11.411,31.611-19.285"/><path class="e" d="M155.277,12.445c-7.505-4.907-16.222-7.985-27.176-7.985-11.49,0-21.247,3.465-29.055,9.271-9.066,6.742-19.333,18.752-20.154,38.191-.196,4.646.395,9.97,1.8,15.371"/><path class="e" d="M175.54,67.293c1.404-5.686,1.997-10.057,1.773-15.371-.692-16.383-7.814-27.489-15.699-34.612"/><path class="g" d="M120.538,103.315c2.541,1.342,5.276,1.912,8.151,1.893,2.969-.019,5.918-.624,8.29-2.472.995-.775.875-2.591,0-3.394-1.055-.969-2.332-.827-3.394,0,.745-.58.236-.185.045-.062-.16.103-.325.198-.494.286-.222.116-.78.252-.103.072-.23.061-.454.174-.681.248-.623.2-1.261.332-1.906.435.357-.057.134-.019-.095.004-.187.019-.374.034-.562.046-.451.029-.903.041-1.355.038-.405-.002-.809-.016-1.213-.044-.185-.013-.371-.028-.556-.046-.086-.009-.765-.128-.182-.017-.6-.114-1.194-.22-1.781-.395-.25-.075-.493-.164-.739-.248-.583-.199.431.214-.096-.035-.305-.144-.606-.294-.905-.452-1.11-.586-2.66-.318-3.284.861-.586,1.109-.324,2.658.861,3.284h0Z"/><path class="g" d="M127.321,84.306c.348,1.328.682,2.676.882,4.035l-.086-.638c.024.186.034.37.015.557l.086-.638c-.013.087-.032.168-.061.25l.242-.573c-.026.058-.053.108-.088.161l.375-.486c-.041.05-.081.089-.132.13l.486-.375c-.102.065-.21.118-.32.169l.573-.242c-.176.073-.35.127-.539.157l.638-.086c-.17.02-.336.019-.506,0l.638.086c-.191-.027-.378-.073-.569-.099-.319-.1-.638-.114-.957-.043-.319.014-.617.109-.892.285-.498.291-.973.862-1.103,1.434-.14.614-.11,1.304.242,1.849.312.484.835,1.022,1.434,1.103.463.062.913.179,1.385.2.738.032,1.42-.197,2.078-.5.82-.378,1.463-1.133,1.681-2.016.185-.75.108-1.383-.019-2.134-.22-1.3-.52-2.589-.855-3.864-.152-.579-.588-1.133-1.103-1.434s-1.273-.429-1.849-.242c-1.25.404-2.018,1.651-1.676,2.952h0Z"/><path class="g" d="M106.302,72.79c-.674,2.19-.235,7.228,3.914,7.657,5.484-.033,5.775-6.124,3.929-8.987-1.511-2.345-5.955-3.32-7.844,1.331Z"/><path class="g" d="M150.215,72.79c.674,2.19.235,7.228-3.914,7.656-5.484-.033-5.776-6.124-3.93-8.988,1.511-2.345,5.955-3.32,7.844,1.331Z"/><path class="g" d="M102.498,139.111c3.419-1.414,7.111-3.197,8.958-6.588,1.66-3.048,1.642-6.61,1.667-9.996.009-1.256-1.11-2.458-2.4-2.4-1.308.059-2.39,1.054-2.4,2.4-.008,1.176-.03,2.348-.107,3.521-.028.419-.058.839-.096,1.257-.005.054-.067.664-.037.42.026-.215-.074.432-.072.42-.072.367-.166.73-.291,1.083-.05.142-.206.491-.061.172-.077.17-.157.337-.243.503-.152.294-.317.581-.5.857-.031.047-.38.499-.202.289.172-.203-.257.272-.245.26-.103.108-.21.214-.32.315.002-.002-.42.363-.301.267-.109.088-.599.435-.857.607-.626.417-1.278.794-1.947,1.138-.351.18-.706.351-1.065.515-.145.066-.29.13-.436.195-.719.32.418-.168-.319.136-1.156.478-2.11,1.613-1.676,2.952.36,1.113,1.71,2.19,2.952,1.676h0Z"/><path class="g" d="M144.309,122.527c0,3.154.009,6.453,1.342,9.365,1.445,3.156,4.48,5.085,7.535,6.477,1.14.519,2.636.364,3.284-.861.556-1.053.359-2.728-.861-3.284-1.325-.604-2.608-1.292-3.788-2.15-.081-.059-.433-.342-.201-.15-.139-.116-.276-.234-.407-.359-.231-.219-.448-.452-.648-.7.213.264.047.052-.057-.105-.077-.116-.152-.235-.223-.355-.182-.305-.325-.624-.489-.937-.167-.318.103.324-.011-.022-.063-.192-.141-.379-.198-.574-.105-.359-.18-.727-.239-1.097-.027-.171-.026-.164.003.021l-.026-.247c-.013-.163-.03-.327-.044-.49-.034-.408-.062-.816-.086-1.225-.066-1.103-.087-2.205-.087-3.309,0-1.255-1.104-2.458-2.4-2.4s-2.4,1.055-2.4,2.4h0Z"/><path class="g" d="M166.358,89.779c-.392,2.905-1.693,5.562-2.749,8.266.166-.426.111-.254-.021.028-.082.175-.163.351-.247.525-.194.401-.396.797-.604,1.19-.509.962-1.054,1.905-1.622,2.833-2.927,4.784-6.486,9.301-10.841,12.867-2.389,1.957-5.079,3.494-8.052,4.185-3.008.698-1.735,5.328,1.276,4.629,6.206-1.441,11.388-5.93,15.46-10.633,3.419-3.949,6.6-8.401,8.776-13.173,1.353-2.969,2.816-6.199,3.254-9.44.173-1.283-.308-2.576-1.676-2.952-1.118-.307-2.778.383-2.952,1.676h0Z"/><path class="g" d="M85.334,90.894c1.905,8.187,5.782,15.836,11.303,22.178,5.434,6.243,12.656,11.553,21.013,12.805,1.28.192,2.58-.321,2.952-1.676.311-1.133-.387-2.759-1.676-2.952-7.639-1.144-13.929-5.865-18.895-11.571s-8.353-12.689-10.068-20.06c-.7-3.007-5.329-1.734-4.629,1.276h0Z"/><path class="g" d="M89.355,67.392c-2.81-2.521-6.838-3.109-10.273-1.512-2.537,1.18-4.043,3.594-4.716,6.236-1.543,6.06-.005,13.056,3.484,18.197,2.34,3.448,5.999,6.551,10.448,5.962,1.285-.17,2.4-.981,2.4-2.4,0-1.165-1.106-2.571-2.4-2.4-3.433.454-5.751-2.385-7.241-5.132-1.218-2.248-2.156-4.838-2.38-7.394-.222-2.535-.225-5.632,1.286-7.815.152-.212.154-.214.006-.007.074-.087.152-.171.233-.252.072-.064.557-.473.395-.358.445-.314.924-.5,1.453-.619,1.369-.308,2.849-.063,3.91.889,2.294,2.057,5.699-1.326,3.394-3.394h0Z"/><path class="g" d="M170.557,70.786c1.018-.913,2.403-1.173,3.728-.927.601.112,1.134.304,1.635.657-.214-.151.266.233.313.274.11.108.215.22.316.337-.148-.208-.146-.206.006.007,1.508,2.18,1.512,5.282,1.286,7.815-.229,2.559-1.162,5.142-2.38,7.394-1.486,2.748-3.81,5.586-7.241,5.132-1.287-.17-2.4,1.225-2.4,2.4,0,1.438,1.109,2.229,2.4,2.4,7.332.97,11.793-7.03,13.626-12.932,1.642-5.286,1.641-13.545-3.503-16.972-3.431-2.286-8.197-1.655-11.18,1.021-2.304,2.067,1.099,5.452,3.394,3.394h0Z"/><path class="g" d="M102.498,139.111c3.419-1.414,7.111-3.197,8.958-6.588,1.66-3.048,1.642-6.61,1.667-9.996.009-1.256-1.11-2.458-2.4-2.4-1.308.059-2.39,1.054-2.4,2.4-.008,1.176-.03,2.348-.107,3.521-.028.419-.058.839-.096,1.257-.005.054-.067.664-.037.42.026-.215-.074.432-.072.42-.072.367-.166.73-.291,1.083-.05.142-.206.491-.061.172-.077.17-.157.337-.243.503-.152.294-.317.581-.5.857-.031.047-.38.499-.202.289.172-.203-.257.272-.245.26-.103.108-.21.214-.32.315.002-.002-.42.363-.301.267-.109.088-.599.435-.857.607-.626.417-1.278.794-1.947,1.138-.351.18-.706.351-1.065.515-.145.066-.29.13-.436.195-.719.32.418-.168-.319.136-1.156.478-2.11,1.613-1.676,2.952.36,1.113,1.71,2.19,2.952,1.676h0Z"/><path class="g" d="M144.309,122.527c0,3.154.009,6.453,1.342,9.365,1.445,3.156,4.48,5.085,7.535,6.477,1.14.519,2.636.364,3.284-.861.556-1.053.359-2.728-.861-3.284-1.325-.604-2.608-1.292-3.788-2.15-.081-.059-.433-.342-.201-.15-.139-.116-.276-.234-.407-.359-.231-.219-.448-.452-.648-.7.213.264.047.052-.057-.105-.077-.116-.152-.235-.223-.355-.182-.305-.325-.624-.489-.937-.167-.318.103.324-.011-.022-.063-.192-.141-.379-.198-.574-.105-.359-.18-.727-.239-1.097-.027-.171-.026-.164.003.021l-.026-.247c-.013-.163-.03-.327-.044-.49-.034-.408-.062-.816-.086-1.225-.066-1.103-.087-2.205-.087-3.309,0-1.255-1.104-2.458-2.4-2.4s-2.4,1.055-2.4,2.4h0Z"/><path class="g" d="M71.955,70.842c-.006,7.172-.222,14.354-.887,21.498-.436,4.683-1.03,9.339-2.227,13.917-1.53,5.85-2.552,11.899-2.797,17.949-.197,4.877,1.733,9.378,5.112,12.879,4.806,4.98,11.597,6.716,18.312,5.665,1.282-.201,1.992-1.804,1.676-2.952-.376-1.367-1.667-1.877-2.952-1.676-4.916.77-9.942-.718-13.438-4.223-1.381-1.385-2.64-3.262-3.236-4.878-.31-.841-.561-1.723-.677-2.613.066.507-.009-.246-.01-.286-.007-.226-.017-.451-.018-.678-.002-.632.03-1.265.064-1.896.297-5.546,1.313-10.966,2.677-16.337,1.133-4.461,1.733-9.066,2.195-13.638.764-7.549,1.001-15.147,1.007-22.731.002-3.089-4.798-3.094-4.8,0h0Z"/><path class="g" d="M178.195,70.152c.188,12.795,1.749,25.546,5.39,37.835,2.628,8.869,6.423,20.731-2.236,27.552-3.764,2.965-8.744,3.914-13.277,2.358-2.928-1.005-4.186,3.63-1.276,4.629,9.918,3.403,21.375-2.945,24.069-13.015,1.569-5.864.281-12.198-1.255-17.927-1.665-6.211-3.537-12.297-4.642-18.648-1.309-7.523-1.861-15.155-1.973-22.784-.045-3.086-4.846-3.095-4.8,0h0Z"/><path class="g" d="M156.944,12.519c1.61.96,2.951,2.119,4.276,3.439,1.499,1.494,3.065,2.937,4.471,4.52,2.753,3.1,4.912,6.723,6.68,10.46,3.552,7.508,5.092,15.498,5.543,23.735.282,5.152.44,10.32.281,15.479-.095,3.09,4.705,3.087,4.8,0,.148-4.814.017-9.635-.227-14.444-.207-4.069-.489-8.122-1.27-12.129-1.768-9.079-5.511-18.054-11.368-25.263-1.605-1.976-3.468-3.699-5.263-5.497-1.683-1.686-3.448-3.22-5.501-4.444-2.659-1.586-5.076,2.562-2.423,4.145h0Z"/><path class="g" d="M151.621,4.577C143.434,1.278,134.657-.288,125.823.044c-9.219.347-18.295,3.153-26.344,7.609-6.03,3.338-11.278,7.622-15.364,13.188-4.241,5.777-7.1,12.55-8.987,19.433-2.718,9.915-3.495,20.323-3.173,30.569.097,3.081,4.897,3.095,4.8,0-.485-15.42,1.398-32.084,9.954-45.329,3.196-4.947,7.438-8.971,12.492-12.128,7.018-4.384,15.097-7.448,23.354-8.309,9.481-.989,18.983.582,27.789,4.13,1.203.485,2.637-.528,2.952-1.676.376-1.37-.469-2.466-1.676-2.952h0Z"/><path class="g" d="M146.611,35.907c-5.057,4.215-10.214,8.01-16.05,11.287-8.374,4.701-17.142,8.931-26.187,12.162-5.318,1.9-10.726,3.53-16.125,5.182-2.945.901-1.69,5.536,1.276,4.629,10.191-3.117,20.286-6.328,29.92-10.937,7.25-3.468,14.526-7.026,21.143-11.622,3.264-2.267,6.366-4.762,9.417-7.306.996-.83.858-2.536,0-3.394-.986-.986-2.395-.833-3.394,0h0Z"/><path class="g" d="M167.167,62.119c-6.999-7.182-12.658-15.913-16.545-25.153-.502-1.194-1.587-2.052-2.952-1.676-1.125.309-2.182,1.75-1.676,2.952,4.221,10.034,10.164,19.457,17.779,27.271,2.16,2.216,5.552-1.179,3.394-3.394h0Z"/><path class="h" d="M56.688,266.295c-5.982,0-11.128-1.556-14.335-3.244-3.434-1.807-6.019-4.875-8.275-8.088-3.251-4.632-4.086-10.889-3.263-16.536,3.152-21.631,9.71-42.239,15.936-63.156,1.052-3.533,2.127-6.224,4.075-9.331l.168-.348c7.944-12.392,22.823-18.19,40.096-25.055.162-.078.321-.156.478-.232,2.422-2.188,5.108-4.254,7.454-5.9,1.205-.846,2.877-.193,3.208,1.241,3.939,17.053,8.941,35.07,14.303,51.534,4.418,13.566,5.72,17.71,11.821,32.664,6.114-14.955,7.416-19.098,11.833-32.664,5.361-16.464,10.364-34.481,14.303-51.534.331-1.434,2.003-2.087,3.208-1.241,2.347,1.647,5.035,3.714,7.458,5.903.155.075.312.151.471.229,17.272,6.865,32.151,12.663,40.096,25.055l.168.348c1.948,3.107,3.023,5.798,4.075,9.331,6.225,20.917,12.784,41.525,15.936,63.156.823,5.646-.012,11.904-3.263,16.536-2.256,3.213-4.841,6.282-8.275,8.088-3.207,1.687-8.353,3.244-14.335,3.244H56.688Z"/><path class="d" d="M127.492,217.727c-5.375-13.265-6.759-17.643-10.96-30.547-3.721-11.428-7.27-23.605-10.411-35.684,6.853,3.204,14.471,4.652,22.106,4.447,7.747.208,15.476-1.286,22.406-4.589-3.148,12.128-6.71,24.354-10.446,35.826-4.202,12.903-5.585,17.282-10.96,30.547"/><path class="g" d="M104.972,153.597c7.407,3.404,15.145,4.73,23.255,4.746s15.864-1.35,23.255-4.746c1.178-.541,1.47-2.243.861-3.284-.707-1.209-2.101-1.404-3.284-.861-6.597,3.032-13.626,4.104-20.832,4.09s-14.22-1.052-20.832-4.09c-1.177-.541-2.585-.334-3.284.861-.605,1.034-.322,2.74.861,3.284h0Z"/><path class="g" d="M155.471,138.369c2.647,1.184,5.255,2.449,7.864,3.716,2.718,1.321,5.598,2.327,8.399,3.463,4.836,1.962,9.645,4.014,14.265,6.449,8.272,4.36,15.756,10.113,19.792,18.764,1.179,2.527,1.889,5.252,2.686,7.915.941,3.145,1.886,6.289,2.824,9.435,1.847,6.197,3.663,12.403,5.347,18.646s3.23,12.508,4.544,18.831c.667,3.211,1.273,6.434,1.805,9.669.459,2.792.9,5.557.776,8.396-.262,5.998-3.135,11.158-7.536,15.161-4.253,3.869-10.645,5.042-16.207,5.08-3.088.021-3.094,4.821,0,4.8,5.6-.038,11.772-1.134,16.585-4.171,2.454-1.548,4.497-3.623,6.274-5.898,1.845-2.36,3.388-4.76,4.371-7.61,2.071-6.005,1.205-12.117.167-18.219-1.139-6.69-2.587-13.325-4.226-19.909-3.271-13.136-7.14-26.166-11.173-39.086-1.579-5.059-4.018-9.706-7.456-13.745-3.243-3.811-7.271-6.934-11.511-9.56-5.252-3.252-10.916-5.775-16.603-8.157-3.112-1.304-6.263-2.511-9.383-3.795s-6.099-2.942-9.179-4.32c-1.182-.529-2.58-.342-3.284.861-.599,1.025-.328,2.752.861,3.284h0Z"/><path class="g" d="M98.822,134.224c-2.791,1.249-5.539,2.585-8.288,3.923-2.693,1.31-5.6,2.265-8.371,3.403-5.156,2.118-10.293,4.326-15.184,7.011-9.014,4.949-16.9,11.765-20.918,21.429-1.185,2.85-1.98,5.842-2.864,8.794-.964,3.22-1.932,6.44-2.889,9.662-1.954,6.579-3.864,13.172-5.606,19.81-1.701,6.48-3.243,13.003-4.512,19.583-1.207,6.258-2.665,12.695-1.715,19.078s4.782,12.35,9.835,16.32c5.091,4,12.03,5.416,18.377,5.459,3.089.021,3.093-4.779,0-4.8-5.037-.034-10.618-1.003-14.827-3.957-4.08-2.863-7.337-7.67-8.428-12.512-1.293-5.734.141-11.716,1.207-17.37,1.183-6.272,2.62-12.493,4.21-18.674,1.61-6.258,3.38-12.474,5.204-18.673,1.809-6.147,3.523-12.349,5.522-18.437,3.006-9.152,9.75-15.693,17.905-20.477,4.97-2.916,10.256-5.267,15.576-7.46,3.065-1.264,6.223-2.363,9.244-3.726s5.931-2.893,8.944-4.241c1.183-.529,1.465-2.251.861-3.284-.713-1.218-2.096-1.392-3.284-.861h0Z"/><path class="h" d="M114.217,218.298c-10.04-17.4-20.901-36.592-29.975-54.335-.2-.392-.372-.82-.356-1.263.02-.532.282-1.041.637-1.426,2.451-2.667,5.134-5.226,7.762-7.69-2.328-1.329-4.657-2.658-6.985-3.987-.258-.147-.54-.326-.614-.621-.064-.258.053-.524.169-.762,2.203-4.541,9.009-10.189,14.166-13.808,1.205-.846,2.877-.193,3.208,1.241,3.939,17.053,8.941,35.07,14.303,51.534,4.202,12.903,5.585,17.282,10.96,30.547"/><path class="h" d="M142.501,218.298c10.04-17.4,20.901-36.592,29.975-54.335.2-.392.372-.82.356-1.263-.02-.532-.282-1.041-.637-1.426-2.451-2.667-5.134-5.226-7.762-7.69,2.328-1.329,4.657-2.658,6.985-3.987.258-.147.54-.326.614-.621.064-.258-.053-.524-.169-.762-2.203-4.541-9.009-10.189-14.166-13.808-1.205-.846-2.877-.193-3.208,1.241-3.939,17.053-8.941,35.07-14.303,51.534-4.202,12.903-5.585,17.282-10.96,30.547"/><path class="g" d="M116.29,217.087c-9.582-16.609-19.053-33.294-27.899-50.31-.593-1.14-1.182-2.281-1.768-3.424-.04-.078-.365-.885-.336-.504.019.247.085-.038.254-.225.424-.469.867-.923,1.307-1.377,1.984-2.049,4.054-4.014,6.134-5.966,1.124-1.055.825-3.021-.486-3.769-1.233-.704-2.465-1.407-3.698-2.111-.548-.313-1.096-.625-1.644-.938-.342-.195-.685-.391-1.027-.586-.137-.078-.274-.156-.411-.235-.293-.19-.279-.149.042.123l.328,1.211c-.018.404.148-.142.25-.318.154-.266.318-.527.488-.784.353-.534.736-1.038,1.147-1.528,1.013-1.207,2.12-2.335,3.267-3.415,2.367-2.228,4.913-4.264,7.561-6.147.602-.428.277-.144.18-.442.056.173.251,1.298.358,1.757.447,1.905.903,3.809,1.369,5.709.944,3.853,1.926,7.696,2.944,11.53,3.871,14.58,8.304,28.999,13.118,43.293,2.244,6.664,4.771,13.217,7.41,19.734.486,1.201,1.599,2.048,2.952,1.676,1.139-.313,2.166-1.744,1.676-2.952-5.968-14.741-10.951-29.837-15.48-45.078-2.698-9.079-5.194-18.22-7.481-27.412-.55-2.21-1.087-4.423-1.611-6.639-.493-2.085-.701-4.436-2.697-5.667-1.848-1.14-3.805-.627-5.453.556-1.573,1.129-3.113,2.307-4.615,3.529-3.282,2.672-6.556,5.628-8.875,9.205-.528.815-1.081,1.723-1.247,2.685-.259,1.495.529,2.632,1.743,3.401,2.256,1.43,4.665,2.663,6.985,3.987l-.486-3.769c-1.907,1.789-3.804,3.588-5.635,5.454-1.857,1.893-4.197,3.915-3.21,6.857.765,2.283,2.234,4.493,3.349,6.624,1.18,2.255,2.371,4.505,3.571,6.749,4.864,9.092,9.88,18.102,14.968,27.071,2.818,4.967,5.66,9.921,8.513,14.868,1.543,2.675,5.693.261,4.145-2.423h0Z"/><path class="g" d="M144.574,219.509c10.186-17.656,20.256-35.396,29.564-53.534.696-1.355,1.381-2.742.95-4.307-.391-1.42-1.508-2.446-2.494-3.474-2.085-2.173-4.268-4.248-6.464-6.308l-.486,3.769c2.054-1.173,4.109-2.345,6.163-3.518.906-.517,1.796-.99,2.297-1.951.651-1.251.197-2.545-.432-3.694-1.724-3.151-4.461-5.806-7.124-8.166-1.497-1.327-3.057-2.578-4.645-3.795-1.474-1.13-3.099-2.713-5.028-2.871-2.051-.168-3.947,1.11-4.61,3.052-.704,2.06-1.033,4.326-1.547,6.444-4.329,17.85-9.548,35.436-15.292,52.877-2.566,7.792-5.436,15.451-8.515,23.055-.487,1.202.529,2.637,1.676,2.952,1.372.377,2.464-.47,2.952-1.676,4.91-12.127,9.103-24.471,13.005-36.956,2.389-7.643,4.624-15.335,6.717-23.065,1.958-7.232,4.165-14.83,5.494-22.022-.007.039-.185.144-.201.117.027.049.32.314.51.449.763.545,1.518,1.1,2.262,1.671,1.418,1.09,2.796,2.235,4.127,3.429,1.34,1.202,2.635,2.46,3.825,3.812.474.539.933,1.088,1.344,1.676.21.302.415.607.606.922.077.127.144.266.227.388.101.149.195.607.177.189l.328-1.211c.191-.37.266-.223-.164-.005-.349.177-.687.392-1.027.586-.616.352-1.233.704-1.849,1.055-1.233.704-2.465,1.407-3.698,2.111-1.311.748-1.61,2.715-.486,3.769,1.791,1.68,3.573,3.369,5.3,5.115.391.395.779.792,1.164,1.193.265.276,1.208,1.015,1.298,1.382-.117-.476-.3.183-.402.382-.309.603-.62,1.206-.931,1.809-2.156,4.173-4.354,8.324-6.582,12.458-4.597,8.53-9.32,16.991-14.105,25.417-2.666,4.693-5.352,9.375-8.049,14.05-1.546,2.681,2.6,5.101,4.145,2.423h0Z"/><path class="d" d="M49.876,189.551c.309,20.541,1.141,74.312,1.464,94.589.07,4.37,3.629,7.867,7.999,7.865,26.143-.013,109.815-.013,135.957,0,4.37.002,7.93-3.495,7.999-7.865.324-20.277,1.155-74.049,1.464-94.59.067-4.466-3.529-8.116-7.995-8.116-26.788-.002-112.128,0-138.897,0-4.466,0-8.06,3.651-7.993,8.117Z"/><path class="g" d="M47.476,189.551c.27,17.918.547,35.835.825,53.753.146,9.436.293,18.871.441,28.307.056,3.586.113,7.172.17,10.758.038,2.384.178,4.645,1.382,6.779,1.308,2.319,3.549,4.068,6.092,4.833,1.765.531,3.624.424,5.443.423,1.389,0,2.779-.001,4.168-.002,3.406-.001,6.811-.002,10.217-.003,8.508-.002,17.016-.003,25.525-.004,19.091-.002,38.183-.001,57.274,0,8.07,0,16.141.002,24.211.004,3.077,0,6.154.002,9.23.003,1.608,0,3.242.091,4.831-.197,2.648-.48,4.981-2.078,6.535-4.25,2.427-3.391,1.909-7.845,1.972-11.801.064-4.042.127-8.084.19-12.126.154-9.867.308-19.735.46-29.602.151-9.79.302-19.581.452-29.371.061-3.978.122-7.956.182-11.934.065-4.291.605-8.679-2.274-12.264-1.798-2.239-4.492-3.572-7.34-3.794-1.352-.105-2.735-.03-4.091-.03-3.124,0-6.248,0-9.371,0-8.107,0-16.215,0-24.322,0-19.124,0-38.248,0-57.371,0-8.61,0-17.219,0-25.829,0-6.198,0-12.412-.127-18.609,0-5.778.119-10.355,4.728-10.393,10.517-.02,3.089,4.78,3.093,4.8,0,.014-2.117,1.053-4.002,2.922-5.041,1.445-.804,3.05-.675,4.644-.675,2.912,0,5.823,0,8.735,0,7.598,0,15.196,0,22.794,0,18.633,0,37.266,0,55.899,0,15.337,0,30.674,0,46.011,0,1.272,0,2.565-.065,3.835.008,2.062.118,3.937,1.427,4.777,3.316.696,1.565.453,3.362.427,5.03-.026,1.709-.052,3.417-.078,5.126-.133,8.713-.266,17.426-.401,26.139-.283,18.391-.568,36.783-.859,55.174-.052,3.269.672,7.554-2.245,9.818-2.27,1.762-5.803,1.159-8.515,1.158-7.02-.003-14.039-.004-21.059-.005-18.242-.003-36.484-.003-54.726-.003-16.147,0-32.295.002-48.442.007-1.389,0-2.779,0-4.168.002-1.482,0-3.068.178-4.479-.353-1.869-.703-3.261-2.423-3.561-4.401-.22-1.453-.086-3.041-.11-4.511-.13-8.208-.258-16.417-.386-24.625-.294-18.87-.586-37.74-.873-56.611-.049-3.184-.097-6.368-.145-9.552-.046-3.086-4.847-3.095-4.8,0Z"/><path class="e" d="M64.904,278.598c12.136-.077,37.363.001,62.414.087,25.051-.086,48.653-.164,60.789-.087"/><path class="e" d="M120.348,232.299c-.005,2.459-.009,6.243.01,8.849.009,1.241,1.02,2.237,2.261,2.233,2.585-.009,6.814-.009,9.399,0,1.241.004,2.252-.992,2.261-2.233.018-2.606.015-6.39.01-8.849-.003-1.242-1.007-2.243-2.249-2.243-2.601,0-6.842,0-9.443,0-1.242,0-2.246,1.001-2.249,2.243Z"/></g></svg>